<?xml version="1.0" encoding="UTF-8"?>
<svg width="18px" height="18px" viewBox="0 0 18 18" version="1.1" xmlns="http://www.w3.org/2000/svg" xmlns:xlink="http://www.w3.org/1999/xlink">
    <!-- Generator: Sketch 47 (45396) - http://www.bohemiancoding.com/sketch -->
    <title>exit-fullscreen-normal</title>
    <desc>Created with Sketch.</desc>
    <defs></defs>
    <g id="Page-1" stroke="none" stroke-width="1" fill="none" fill-rule="evenodd" fill-opacity="0.7">
        <g id="exit-fullscreen-normal" fill-rule="nonzero" fill="#FFFFFF">
            <path d="M11.7071068,7 L14.5,7 C14.7761424,7 15,7.22385763 15,7.5 C15,7.77614237 14.7761424,8 14.5,8 L10.5,8 C10.2238576,8 10,7.77614237 10,7.5 L10,3.5 C10,3.22385763 10.2238576,3 10.5,3 C10.7761424,3 11,3.22385763 11,3.5 L11,6.29289322 L14.6464466,2.64644661 C14.8417088,2.45118446 15.1582912,2.45118446 15.3535534,2.64644661 C15.5488155,2.84170876 15.5488155,3.15829124 15.3535534,3.35355339 L11.7071068,7 Z M6.29289322,11 L3.5,11 C3.22385763,11 3,10.7761424 3,10.5 C3,10.2238576 3.22385763,10 3.5,10 L7.5,10 C7.77614237,10 8,10.2238576 8,10.5 L8,14.5 C8,14.7761424 7.77614237,15 7.5,15 C7.22385763,15 7,14.7761424 7,14.5 L7,11.7071068 L3.35355339,15.3535534 C3.15829124,15.5488155 2.84170876,15.5488155 2.64644661,15.3535534 C2.45118446,15.1582912 2.45118446,14.8417088 2.64644661,14.6464466 L6.29289322,11 L6.29289322,11 Z" id="Combined-Shape"></path>
        </g>
    </g>
</svg>