<?xml version="1.0" encoding="UTF-8"?>
<svg width="18px" height="18px" viewBox="0 0 18 18" version="1.1" xmlns="http://www.w3.org/2000/svg" xmlns:xlink="http://www.w3.org/1999/xlink">
    <!-- Generator: Sketch 47 (45396) - http://www.bohemiancoding.com/sketch -->
    <title>Subtitle-press</title>
    <desc>Created with Sketch.</desc>
    <defs></defs>
    <g id="Page-1" stroke="none" stroke-width="1" fill="none" fill-rule="evenodd">
        <g id="Subtitle-press" fill-rule="nonzero" fill="#2CA7F8">
            <path d="M2,13.9975267 L2,4.00247329 C2,3.45576096 2.45078007,3 3.00684547,3 L14.9931545,3 C15.5500512,3 16,3.44882258 16,4.00247329 L16,13.9975267 C16,14.544239 15.5492199,15 14.9931545,15 L3.00684547,15 C2.44994876,15 2,14.5511774 2,13.9975267 Z M4.5,11 L5.5,11 C5.77614237,11 6,10.7761424 6,10.5 C6,10.2238576 5.77614237,10 5.5,10 L4.5,10 C4.22385763,10 4,10.2238576 4,10.5 C4,10.7761424 4.22385763,11 4.5,11 Z M12.5,13 L13.5,13 C13.7761424,13 14,12.7761424 14,12.5 C14,12.2238576 13.7761424,12 13.5,12 L12.5,12 C12.2238576,12 12,12.2238576 12,12.5 C12,12.7761424 12.2238576,13 12.5,13 Z M7.5,11 L13.5,11 C13.7761424,11 14,10.7761424 14,10.5 C14,10.2238576 13.7761424,10 13.5,10 L7.5,10 C7.22385763,10 7,10.2238576 7,10.5 C7,10.7761424 7.22385763,11 7.5,11 Z M4.5,13 L10.5,13 C10.7761424,13 11,12.7761424 11,12.5 C11,12.2238576 10.7761424,12 10.5,12 L4.5,12 C4.22385763,12 4,12.2238576 4,12.5 C4,12.7761424 4.22385763,13 4.5,13 Z" id="Combined-Shape"></path>
        </g>
    </g>
</svg>