<?xml version="1.0" encoding="UTF-8"?>
<svg width="16px" height="16px" viewBox="0 0 16 16" version="1.1" xmlns="http://www.w3.org/2000/svg" xmlns:xlink="http://www.w3.org/1999/xlink">
    <!-- Generator: Sketch 47 (45396) - http://www.bohemiancoding.com/sketch -->
    <title>close-normal</title>
    <desc>Created with Sketch.</desc>
    <defs></defs>
    <g id="Page-1" stroke="none" stroke-width="1" fill="none" fill-rule="evenodd" fill-opacity="0.7">
        <g id="close-normal">
            <g id="Group" transform="translate(1.000000, 1.000000)">
                <path d="M7,14 C3.13400675,14 0,10.8659932 0,7 C0,3.13400675 3.13400675,0 7,0 C10.8659932,0 14,3.13400675 14,7 C14,10.8659932 10.8659932,14 7,14 Z" id="Combined-Shape" fill="#FFFFFF"></path>
                <path d="M7,6.29289322 L4.35355339,3.64644661 C4.15829124,3.45118446 3.84170876,3.45118446 3.64644661,3.64644661 C3.45118446,3.84170876 3.45118446,4.15829124 3.64644661,4.35355339 L6.29289322,7 L3.64644661,9.64644661 C3.45118446,9.84170876 3.45118446,10.1582912 3.64644661,10.3535534 C3.84170876,10.5488155 4.15829124,10.5488155 4.35355339,10.3535534 L7,7.70710678 L9.64644661,10.3535534 C9.84170876,10.5488155 10.1582912,10.5488155 10.3535534,10.3535534 C10.5488155,10.1582912 10.5488155,9.84170876 10.3535534,9.64644661 L7.70710678,7 L10.3535534,4.35355339 C10.5488155,4.15829124 10.5488155,3.84170876 10.3535534,3.64644661 C10.1582912,3.45118446 9.84170876,3.45118446 9.64644661,3.64644661 L7,6.29289322 L7,6.29289322 Z" id="Path" fill="#000000"></path>
            </g>
        </g>
    </g>
</svg>