<?xml version="1.0" encoding="UTF-8"?>
<svg width="48px" height="48px" viewBox="0 0 48 48" version="1.1" xmlns="http://www.w3.org/2000/svg" xmlns:xlink="http://www.w3.org/1999/xlink">
    <!-- Generator: Sketch 47.1 (45422) - http://www.bohemiancoding.com/sketch -->
    <title>dvd</title>
    <desc>Created with Sketch.</desc>
    <defs>
        <linearGradient x1="31.9334198%" y1="15.8293506%" x2="72.5739565%" y2="90.8548158%" id="linearGradient-1">
            <stop stop-color="#A6A6A6" offset="0%"></stop>
            <stop stop-color="#ECECEC" offset="51.0222647%"></stop>
            <stop stop-color="#9B9B9B" offset="100%"></stop>
        </linearGradient>
        <linearGradient x1="24.2340527%" y1="8.16161353%" x2="77.0256314%" y2="93.7107035%" id="linearGradient-2">
            <stop stop-color="#FEFEFE" stop-opacity="0.5" offset="0%"></stop>
            <stop stop-color="#FFFFFF" stop-opacity="0.754147534" offset="50.8295068%"></stop>
            <stop stop-color="#FFFFFF" stop-opacity="0.3" offset="100%"></stop>
        </linearGradient>
    </defs>
    <g id="UI" stroke="none" stroke-width="1" fill="none" fill-rule="evenodd">
        <g id="dvd">
            <g id="Group-2" transform="translate(3.000000, 3.000000)">
                <g id="Group">
                    <g id="Group-4" transform="translate(14.000000, 14.000000)"></g>
                    <path d="M21,42 C9.40202025,42 0,32.5979797 0,21 C0,9.40202025 9.40202025,0 21,0 C32.5979797,0 42,9.40202025 42,21 C42,32.5979797 32.5979797,42 21,42 Z M21,28 C24.8659932,28 28,24.8659932 28,21 C28,17.1340068 24.8659932,14 21,14 C17.1340068,14 14,17.1340068 14,21 C14,24.8659932 17.1340068,28 21,28 Z" id="Combined-Shape" fill="url(#linearGradient-1)"></path>
                    <path d="M21,41 C32.045695,41 41,32.045695 41,21 C41,9.954305 32.045695,1 21,1 C9.954305,1 1,9.954305 1,21 C1,32.045695 9.954305,41 21,41 Z M21,42 C9.40202025,42 0,32.5979797 0,21 C0,9.40202025 9.40202025,0 21,0 C32.5979797,0 42,9.40202025 42,21 C42,32.5979797 32.5979797,42 21,42 Z" id="Oval" fill="url(#linearGradient-2)" fill-rule="nonzero"></path>
                    <path d="M21,28 C24.8659932,28 28,24.8659932 28,21 C28,17.1340068 24.8659932,14 21,14 C17.1340068,14 14,17.1340068 14,21 C14,24.8659932 17.1340068,28 21,28 L21,28 Z M21,24 C22.6568542,24 24,22.6568542 24,21 C24,19.3431458 22.6568542,18 21,18 C19.3431458,18 18,19.3431458 18,21 C18,22.6568542 19.3431458,24 21,24 L21,24 Z" id="Combined-Shape" fill="#CBD4E5" opacity="0.8"></path>
                    <path d="M21,31 C26.5228475,31 31,26.5228475 31,21 C31,15.4771525 26.5228475,11 21,11 C15.4771525,11 11,15.4771525 11,21 C11,26.5228475 15.4771525,31 21,31 L21,31 Z M21,27 C24.3137085,27 27,24.3137085 27,21 C27,17.6862915 24.3137085,15 21,15 C17.6862915,15 15,17.6862915 15,21 C15,24.3137085 17.6862915,27 21,27 L21,27 Z" id="Combined-Shape" fill="#000000" opacity="0.4"></path>
                    <path d="M21,1 C18.9221774,1 16.9148366,1.30176815 15.0194133,1.86386861 C15.0194133,1.86386859 20.0344509,18 20.0344509,18.0660484 C20.3500703,18.0225033 20.6724072,18 21,18 C21.3534771,18 21.7008349,18.0261999 22.0402373,18.0767638 C22.0402373,18.0262003 27.0402654,1.86386859 27.0402654,1.88166383 C25.1273169,1.30813963 23.0996434,1 21,1 Z M21,41.0090792 C18.9221774,41.0090792 16.9148366,40.707311 15.0194133,40.1452105 C15.0194133,40.1452106 20.0244158,23.9353168 20.024416,23.9416388 C20.343237,23.9860962 20.6689345,24.0090792 21,24.0090792 C21.346415,24.0090792 21.6869528,23.9839156 22.0198852,23.9353168 C22.3748704,23.8834988 27.0402654,40.1452106 27.0402654,40.1274153 C25.1273169,40.7009395 23.0996434,41.0090792 21,41.0090792 Z" id="Combined-Shape" fill="#FFFFFF" opacity="0.25" transform="translate(21.029839, 21.004540) rotate(-30.000000) translate(-21.029839, -21.004540) "></path>
                </g>
                <path d="M15.432,32.716 L15.432,37 L16.92,37 C17.592,37 18.108,36.802 18.468,36.412 C18.81,36.04 18.984,35.518 18.984,34.858 C18.984,34.186 18.822,33.664 18.504,33.304 C18.156,32.908 17.646,32.716 16.968,32.716 L15.432,32.716 Z M15.924,33.142 L16.89,33.142 C17.454,33.142 17.862,33.286 18.126,33.58 C18.372,33.856 18.498,34.282 18.498,34.858 C18.498,35.416 18.36,35.842 18.096,36.13 C17.814,36.424 17.394,36.574 16.836,36.574 L15.924,36.574 L15.924,33.142 Z M19.266,32.716 L20.85,37 L21.456,37 L23.04,32.716 L22.5,32.716 L21.162,36.466 L21.144,36.466 L19.806,32.716 L19.266,32.716 Z M23.502,32.716 L23.502,37 L24.99,37 C25.662,37 26.178,36.802 26.538,36.412 C26.88,36.04 27.054,35.518 27.054,34.858 C27.054,34.186 26.892,33.664 26.574,33.304 C26.226,32.908 25.716,32.716 25.038,32.716 L23.502,32.716 Z M23.994,33.142 L24.96,33.142 C25.524,33.142 25.932,33.286 26.196,33.58 C26.442,33.856 26.568,34.282 26.568,34.858 C26.568,35.416 26.43,35.842 26.166,36.13 C25.884,36.424 25.464,36.574 24.906,36.574 L23.994,36.574 L23.994,33.142 Z" id="DVD" fill="#000000"></path>
            </g>
        </g>
    </g>
</svg>