<?xml version="1.0" encoding="UTF-8"?>
<svg width="128px" height="128px" viewBox="0 0 128 128" version="1.1" xmlns="http://www.w3.org/2000/svg" xmlns:xlink="http://www.w3.org/1999/xlink">
    <!-- Generator: Sketch 47.1 (45422) - http://www.bohemiancoding.com/sketch -->
    <title>pause-big_press</title>
    <desc>Created with Sketch.</desc>
    <defs>
        <rect id="path-1" x="0" y="0" width="88" height="76" rx="8"></rect>
        <filter x="-14.8%" y="-14.5%" width="129.5%" height="134.2%" filterUnits="objectBoundingBox" id="filter-2">
            <feOffset dx="0" dy="2" in="SourceAlpha" result="shadowOffsetOuter1"></feOffset>
            <feGaussianBlur stdDeviation="4" in="shadowOffsetOuter1" result="shadowBlurOuter1"></feGaussianBlur>
            <feComposite in="shadowBlurOuter1" in2="SourceAlpha" operator="out" result="shadowBlurOuter1"></feComposite>
            <feColorMatrix values="0 0 0 0 0   0 0 0 0 0   0 0 0 0 0  0 0 0 0.1 0" type="matrix" in="shadowBlurOuter1"></feColorMatrix>
        </filter>
    </defs>
    <g id="Page-1" stroke="none" stroke-width="1" fill="none" fill-rule="evenodd">
        <g id="pause-big_press">
            <g id="Group" transform="translate(20.000000, 26.000000)">
                <g id="Rectangle-5">
                    <use fill="black" fill-opacity="1" filter="url(#filter-2)" xlink:href="#path-1"></use>
                    <use fill-opacity="0.5" fill="#404040" fill-rule="evenodd" xlink:href="#path-1"></use>
                </g>
                <path d="M32,21 L37,21 C37.5522847,21 38,21.4477153 38,22 L38,54 L38,54 C38,54.5522847 37.5522847,55 37,55 L32,55 C31.4477153,55 31,54.5522847 31,54 L31,22 L31,22 C31,21.4477153 31.4477153,21 32,21 L32,21 Z M51,21 L56,21 C56.5522847,21 57,21.4477153 57,22 L57,54 C57,54.5522847 56.5522847,55 56,55 L51,55 C50.4477153,55 50,54.5522847 50,54 L50,22 L50,22 C50,21.4477153 50.4477153,21 51,21 Z" id="Combined-Shape" fill-opacity="0.6" fill="#FFFFFF"></path>
            </g>
        </g>
    </g>
</svg>