<?xml version="1.0" encoding="UTF-8"?>
<svg width="36px" height="36px" viewBox="0 0 36 36" version="1.1" xmlns="http://www.w3.org/2000/svg" xmlns:xlink="http://www.w3.org/1999/xlink">
    <!-- Generator: Sketch 56.2 (81672) - https://sketch.com -->
    <title>episodes_normal</title>
    <desc>Created with Sketch.</desc>
    <g id="页面-1" stroke="none" stroke-width="1" fill="none" fill-rule="evenodd">
        <g id="按钮规范" transform="translate(-798.000000, -269.000000)" fill="#000000" fill-rule="nonzero">
            <g id="playlist_icon" transform="translate(791.000000, 262.000000)">
                <g id="episodes_normal" transform="translate(7.000000, 7.000000)">
                    <path d="M13,12 L13,13 L14,13 L14,12 L13,12 Z M12,11 L15,11 L15,14 L12,14 L12,11 Z M16,11 L25,11 L25,12 L16,12 L16,11 Z M16,13 L21,13 L21,14 L16,14 L16,13 Z" id="Combined-Shape"></path>
                    <path d="M13,17 L13,18 L14,18 L14,17 L13,17 Z M12,16 L15,16 L15,19 L12,19 L12,16 Z M16,16 L25,16 L25,17 L16,17 L16,16 Z M16,18 L21,18 L21,19 L16,19 L16,18 Z" id="Combined-Shape"></path>
                    <path d="M13,22 L13,23 L14,23 L14,22 L13,22 Z M12,21 L15,21 L15,24 L12,24 L12,21 Z M16,21 L25,21 L25,22 L16,22 L16,21 Z M16,23 L21,23 L21,24 L16,24 L16,23 Z" id="Combined-Shape"></path>
                </g>
            </g>
        </g>
    </g>
</svg>