<svg xmlns="http://www.w3.org/2000/svg" xmlns:xlink="http://www.w3.org/1999/xlink" width="48" height="48" viewBox="0 0 48 48">
  <defs>
    <linearGradient id="deepin-launcher-c" x1="50%" x2="50%" y1="4.64%" y2="97.178%">
      <stop offset="0%" stop-color="#00ABFF"/>
      <stop offset="100%" stop-color="#0163FA"/>
    </linearGradient>
    <circle id="deepin-launcher-b" cx="24" cy="24" r="21"/>
    <filter id="deepin-launcher-a" width="116.7%" height="116.7%" x="-8.3%" y="-6%" filterUnits="objectBoundingBox">
      <feOffset dy="1" in="SourceAlpha" result="shadowOffsetOuter1"/>
      <feGaussianBlur in="shadowOffsetOuter1" result="shadowBlurOuter1" stdDeviation="1"/>
      <feColorMatrix in="shadowBlurOuter1" values="0 0 0 0 0   0 0 0 0 0   0 0 0 0 0  0 0 0 0.2 0"/>
    </filter>
  </defs>
  <g fill="none" fill-rule="evenodd">
    <use fill="#000" filter="url(#deepin-launcher-a)" xlink:href="#deepin-launcher-b"/>
    <use fill="url(#deepin-launcher-c)" xlink:href="#deepin-launcher-b"/>
    <path fill="#F0F9FF" fill-rule="nonzero" d="M31.1358196,8.53832222 C28.9527873,7.51840727 26.5172687,6.94871795 23.9487179,6.94871795 C23.0660167,6.94871795 22.1990265,7.01599846 21.3525957,7.14571093 C18.9652694,10.7452451 17.732616,16.3135138 17.8343519,19.7656873 C17.8343519,19.7656873 17.6665726,25.0583605 21.2243732,26.935647 C21.2243732,26.935647 24.4217047,28.3652379 26.6006378,23.7425906 C26.6006378,23.7425906 28.0981964,21.1338149 27.4886226,15.2378908 C27.4886226,15.2378908 28.0718206,15.3426061 28.13776,15.436698 C28.2036995,15.5300312 29.4257776,19.9758767 28.5670992,23.7198264 C28.5670992,23.7198264 27.7765583,28.1193846 23.889793,29.1255617 C20.004493,30.1317387 16.9764062,27.6974884 14.9205601,25.4043761 C13.4342569,23.7466223 11.248736,19.3763793 10.0981394,14.0896728 C8.11519589,16.8704147 6.94871795,20.2735718 6.94871795,23.9491041 C6.94871795,26.6925298 7.59859034,29.2841669 8.75279291,31.5784764 C12.6589918,32.7191026 22.264348,34.8377025 28.3966982,30.343373 C32.4957814,27.3386174 31.9676289,22.5267202 31.9676289,22.5267202 C31.8997657,18.8664929 29.6713456,15.2307692 29.6713456,15.2307692 C38.33644,23.0696284 33.2149835,31.7783659 33.2149835,31.7783659 C30.9754182,36.3526577 26.5151961,39.3783438 22.4286969,40.8816901 C22.9294463,40.9260595 23.4364359,40.9487179 23.9487179,40.9487179 C33.3375916,40.9487179 40.9487179,33.3377645 40.9487179,23.9491041 C40.9487179,19.9492926 39.5673318,16.2720378 37.2556268,13.3684426 C36.4853543,13.4136298 35.6197952,13.4361166 34.7259508,13.4067819 C34.7259508,13.4067819 30.1157814,13.6220692 27.5306693,14.9114702 C27.5306693,14.9114702 25.6029098,15.7710708 23.6759413,17.2285198 C23.6759413,17.2285198 23.2669746,17.4329653 23.2867506,18.1841479 C23.3041534,18.9330072 22.8943957,20.929449 21.5290642,22.09959 C21.5290642,22.09959 20.5545054,22.6006365 21.0417848,23.3177448 C21.0417848,23.3177448 21.6999284,24.2733729 22.6270249,23.2697311 C22.6270249,23.2697311 25.0175417,20.8101891 25.1638837,16.8467332 C25.1638837,16.8467332 25.920116,16.2008711 27.1145833,16.010365 C27.1145833,16.010365 27.3344919,21.9563233 24.3839202,24.941693 C24.3839202,24.941693 21.5773175,27.9983089 20.6755342,23.4610116 C20.6755342,23.4610116 19.5775735,19.1382271 25.2374502,14.0046302 C25.2374502,14.0046302 28.8767502,10.3701517 31.1358196,8.53832222 Z M24,43 C13.5065563,43 5,34.4936193 5,24.0003923 C5,13.5070272 13.5066945,5 24,5 C34.4933055,5 43,13.5070272 43,24.0003923 C43,34.4936193 34.4934437,43 24,43 Z"/>
  </g>
</svg>
