<?xml version="1.0" encoding="UTF-8"?>
<svg width="410px" height="287px" viewBox="0 0 410 287" version="1.1" xmlns="http://www.w3.org/2000/svg" xmlns:xlink="http://www.w3.org/1999/xlink">
    <title>编组 7</title>
    <defs>
        <rect id="path-1" x="7" y="7" width="376" height="226" rx="10"></rect>
    </defs>
    <g id="浅色主题" stroke="none" stroke-width="1" fill="none" fill-rule="evenodd">
        <g id="6影院-投屏成功页面" transform="translate(-755.000000, -397.000000)">
            <g id="Group-4" transform="translate(425.000000, 200.000000)">
                <g id="default" transform="translate(330.000000, 197.000000)">
                    <rect id="矩形" x="0" y="0" width="410" height="287"></rect>
                    <g id="编组-6" transform="translate(10.000000, 10.000000)">
                        <path d="M202.222222,240 L202.222,252.971 L260,261.443229 L256.186234,264.139255 C253.213349,266.240846 249.577593,267.18948 245.956901,266.808273 L195,261.443229 L146.416346,266.907165 C143.557226,267.228715 140.66595,266.721208 138.087257,265.445158 L130,261.443229 L187.777,252.971 L187.777778,240 L202.222222,240 Z" id="形状结合" fill="#3F4245"></path>
                        <rect id="矩形" stroke-opacity="0.0761787041" stroke="#FFFFFF" fill="#3F4245" x="0.5" y="0.5" width="389" height="239" rx="18"></rect>
                        <mask id="mask-2" fill="white">
                            <use xlink:href="#path-1"></use>
                        </mask>
                        <use id="蒙版" fill="#1C1C1C" xlink:href="#path-1"></use>
                        <path d="M195,266 C410.767628,266 390,230.630495 390,187 C390,143.369505 302.694677,104 194.99915,104 C87.3036243,104 5.3279603e-13,143.369505 5.3279603e-13,187 C5.3279603e-13,230.630495 -20.7676277,266 195,266 Z" id="椭圆形" fill="url(#linearGradient-3)" filter="url(#filter-4)" mask="url(#mask-2)"></path>
                        <path d="M194.407042,260.912905 C390,260.912905 390,258.271092 390,229 C390,199.728908 298.512717,176 194.407042,176 C90.3013666,176 -0.00169907315,199.728908 -0.00169907315,229 C-0.00169907315,258.271092 -1.18591618,260.912905 194.407042,260.912905 Z" id="椭圆形" fill="url(#linearGradient-5)" filter="url(#filter-6)" mask="url(#mask-2)"></path>
                    </g>
                </g>
            </g>
        </g>
    </g>
</svg>