<?xml version="1.0" encoding="UTF-8"?>
<svg width="32px" height="32px" viewBox="0 0 32 32" version="1.1" xmlns="http://www.w3.org/2000/svg" xmlns:xlink="http://www.w3.org/1999/xlink">
    <title>-mockplus-</title>
    <g id="浅色主题" stroke="none" stroke-width="1" fill="none" fill-rule="evenodd">
        <g id="画板" transform="translate(-679.000000, -263.000000)" fill="#FFFFFF" fill-rule="nonzero">
            <g id="编组-5" transform="translate(664.000000, 248.000000)">
                <g id="-mockplus-" transform="translate(15.000000, 15.000000)">
                    <g id="icon-exit-projection" transform="translate(2.666667, 1.333333)">
                        <path d="M19.5423978,4.16426764 C23.9385619,6.4848198 26.6666667,11.0111715 26.6666667,15.9805957 C26.6666667,23.3438862 20.6852095,29.3333333 13.334925,29.3333333 C5.98145716,29.3333333 0,23.3438862 0,15.9805957 C0,11.0462348 2.69945486,6.53263338 7.04786917,4.2025185 C7.7418328,3.82957262 8.60451236,4.0909535 8.97377741,4.78584412 C9.34622578,5.48073473 9.08519359,6.34456665 8.39122996,6.71432496 C4.96916159,8.54717865 2.84588755,12.0981335 2.84588755,15.9805957 C2.84588755,21.7692258 7.55083363,26.4804567 13.3317417,26.4804567 C19.1126497,26.4804567 23.8175958,21.7692258 23.8175958,15.9805957 C23.8175958,12.0726329 21.6720385,8.51211537 18.2149536,6.68563681 C17.52099,6.31906608 17.2535912,5.45523416 17.6196729,4.76034354 C17.9857546,4.06545292 18.8484342,3.79769691 19.5423978,4.16426764 Z M13.3333333,0 C14.0700969,0 14.6666667,0.641025641 14.6666667,1.43269231 L14.6666667,14.5673077 C14.6666667,15.3589744 14.0700969,16 13.3333333,16 C12.5965697,16 12,15.3589744 12,14.5673077 L12,1.43269231 C12,0.641025641 12.5965697,0 13.3333333,0 Z" id="形状结合"></path>
                    </g>
                </g>
            </g>
        </g>
    </g>
</svg>