<?xml version="1.0" encoding="UTF-8"?>
<svg width="24px" height="24px" viewBox="0 0 24 24" version="1.1" xmlns="http://www.w3.org/2000/svg" xmlns:xlink="http://www.w3.org/1999/xlink">
    <title>-mockplus-</title>
    <g id="浅色主题" stroke="none" stroke-width="1" fill="none" fill-rule="evenodd">
        <g id="5影院-投屏成功失败状态" transform="translate(-1451.000000, -289.000000)">
            <g id="编组-3" transform="translate(1245.000000, 174.000000)">
                <g id="编组-5" transform="translate(0.000000, 110.000000)">
                    <g id="-mockplus-" transform="translate(206.000000, 5.000000)">
                        <g id="DTK-/-Spinner-/-White" transform="translate(1.107167, 1.107167)">
                            <circle id="bg" cx="10.8928329" cy="10.8928329" r="10.5"></circle>
                            <circle id="9" fill="#FFFFFF" opacity="0.00999999978" transform="translate(4.397642, 14.642833) rotate(240.000000) translate(-4.397642, -14.642833) " cx="4.39764242" cy="14.6428329" r="3"></circle>
                            <circle id="8" fill="#FFFFFF" opacity="0.0199999996" transform="translate(3.845138, 13.457984) rotate(250.000000) translate(-3.845138, -13.457984) " cx="3.84513829" cy="13.457984" r="3"></circle>
                            <circle id="7" fill="#FFFFFF" opacity="0.0299999993" transform="translate(3.506775, 12.195194) rotate(260.000000) translate(-3.506775, -12.195194) " cx="3.5067748" cy="12.1951943" r="3"></circle>
                            <circle id="6" fill="#FFFFFF" opacity="0.0399999991" transform="translate(3.392833, 10.892833) rotate(270.000000) translate(-3.392833, -10.892833) " cx="3.39283295" cy="10.8928329" r="3"></circle>
                            <circle id="5" fill="#FFFFFF" opacity="0.049999997" transform="translate(3.506775, 9.590472) rotate(280.000000) translate(-3.506775, -9.590472) " cx="3.5067748" cy="9.59047162" r="3"></circle>
                            <circle id="4" fill="#FFFFFF" opacity="0.099999994" transform="translate(3.845138, 8.327682) rotate(290.000000) translate(-3.845138, -8.327682) " cx="3.84513829" cy="8.32768187" r="3"></circle>
                            <circle id="3" fill="#FFFFFF" opacity="0.149999991" transform="translate(4.397642, 7.142833) rotate(300.000000) translate(-4.397642, -7.142833) " cx="4.39764242" cy="7.14283295" r="3"></circle>
                            <circle id="2" fill="#FFFFFF" opacity="0.299999982" transform="translate(5.147500, 6.071926) rotate(310.000000) translate(-5.147500, -6.071926) " cx="5.14749962" cy="6.07192588" r="3"></circle>
                            <circle id="1" fill="#FFFFFF" transform="translate(6.071926, 5.147500) rotate(320.000000) translate(-6.071926, -5.147500) " cx="6.07192588" cy="5.14749962" r="3"></circle>
                            <circle id="9" fill="#FFFFFF" opacity="0.00999999978" cx="10.8928329" cy="3.39283295" r="3"></circle>
                            <circle id="8" fill="#FFFFFF" opacity="0.0199999996" transform="translate(12.195194, 3.506775) rotate(10.000000) translate(-12.195194, -3.506775) " cx="12.1951943" cy="3.5067748" r="3"></circle>
                            <circle id="7" fill="#FFFFFF" opacity="0.0299999993" transform="translate(13.457984, 3.845138) rotate(20.000000) translate(-13.457984, -3.845138) " cx="13.457984" cy="3.84513829" r="3"></circle>
                            <circle id="6" fill="#FFFFFF" opacity="0.0399999991" transform="translate(14.642833, 4.397642) rotate(30.000000) translate(-14.642833, -4.397642) " cx="14.6428329" cy="4.39764242" r="3"></circle>
                            <circle id="5" fill="#FFFFFF" opacity="0.049999997" transform="translate(15.713740, 5.147500) rotate(40.000000) translate(-15.713740, -5.147500) " cx="15.71374" cy="5.14749962" r="3"></circle>
                            <circle id="4" fill="#FFFFFF" opacity="0.099999994" transform="translate(16.638166, 6.071926) rotate(50.000000) translate(-16.638166, -6.071926) " cx="16.6381663" cy="6.07192588" r="3"></circle>
                            <circle id="3" fill="#FFFFFF" opacity="0.149999991" transform="translate(17.388023, 7.142833) rotate(60.000000) translate(-17.388023, -7.142833) " cx="17.3880235" cy="7.14283295" r="3"></circle>
                            <circle id="2" fill="#FFFFFF" opacity="0.299999982" transform="translate(17.940528, 8.327682) rotate(70.000000) translate(-17.940528, -8.327682) " cx="17.9405276" cy="8.32768187" r="3"></circle>
                            <circle id="1" fill="#FFFFFF" transform="translate(18.278891, 9.590472) rotate(80.000000) translate(-18.278891, -9.590472) " cx="18.2788911" cy="9.59047162" r="3"></circle>
                            <circle id="9" fill="#FFFFFF" opacity="0.00999999978" transform="translate(17.388023, 14.642833) rotate(120.000000) translate(-17.388023, -14.642833) " cx="17.3880235" cy="14.6428329" r="3"></circle>
                            <circle id="8" fill="#FFFFFF" opacity="0.0199999996" transform="translate(16.638166, 15.713740) rotate(130.000000) translate(-16.638166, -15.713740) " cx="16.6381663" cy="15.71374" r="3"></circle>
                            <circle id="7" fill="#FFFFFF" opacity="0.0299999993" transform="translate(15.713740, 16.638166) rotate(140.000000) translate(-15.713740, -16.638166) " cx="15.71374" cy="16.6381663" r="3"></circle>
                            <circle id="6" fill="#FFFFFF" opacity="0.0399999991" transform="translate(14.642833, 17.388023) rotate(150.000000) translate(-14.642833, -17.388023) " cx="14.6428329" cy="17.3880235" r="3"></circle>
                            <circle id="5" fill="#FFFFFF" opacity="0.049999997" transform="translate(13.457984, 17.940528) rotate(160.000000) translate(-13.457984, -17.940528) " cx="13.457984" cy="17.9405276" r="3"></circle>
                            <circle id="4" fill="#FFFFFF" opacity="0.099999994" transform="translate(12.195194, 18.278891) rotate(170.000000) translate(-12.195194, -18.278891) " cx="12.1951943" cy="18.2788911" r="3"></circle>
                            <circle id="3" fill="#FFFFFF" opacity="0.149999991" transform="translate(10.892833, 18.392833) rotate(180.000000) translate(-10.892833, -18.392833) " cx="10.8928329" cy="18.3928329" r="3"></circle>
                            <circle id="2" fill="#FFFFFF" opacity="0.299999982" transform="translate(9.590472, 18.278891) rotate(190.000000) translate(-9.590472, -18.278891) " cx="9.59047162" cy="18.2788911" r="3"></circle>
                            <circle id="1" fill="#FFFFFF" transform="translate(8.327682, 17.940528) rotate(200.000000) translate(-8.327682, -17.940528) " cx="8.32768187" cy="17.9405276" r="3"></circle>
                        </g>
                    </g>
                </g>
            </g>
        </g>
    </g>
</svg>