<?xml version="1.0" encoding="UTF-8"?>
<svg width="36px" height="36px" viewBox="0 0 36 36" version="1.1" xmlns="http://www.w3.org/2000/svg" xmlns:xlink="http://www.w3.org/1999/xlink">
    <!-- Generator: Sketch 58 (84663) - https://sketch.com -->
    <title>Popup Play</title>
    <desc>Created with Sketch.</desc>
    <g id="浅色主题" stroke="none" stroke-width="1" fill="none" fill-rule="evenodd">
        <g id="小窗口样式" transform="translate(-1312.000000, -744.000000)">
            <g id="close_round备份-2" transform="translate(1312.000000, 744.000000)">
                <rect id="占位" fill="#000000" opacity="0.5" x="0" y="0" width="36" height="36" rx="18"></rect>
                <g id="caozuo_quanpingfangda" transform="translate(9.000000, 9.000000)" fill="#FFFFFF" fill-rule="nonzero">
                    <path d="M5.71425656,10 L2.28570262,10 C1.0250884,10 0,11.0251292 0,12.285723 L0,15.7142566 C0,16.9748912 1.0250884,18 2.28570262,18 L5.71429738,18 C6.97431973,18 8,16.9748912 8,15.7142566 L8,12.2857434 C8,11.0251496 6.97429932,10 5.71425656,10 L5.71425656,10 Z M7,15.7999829 C7,16.4615277 6.46150439,17 5.79997857,17 L2.19997857,17 C1.53787413,17 1,16.4615706 1,15.7999829 L1,12.2000386 C1,11.5384937 1.53787413,11 2.19997857,11 L5.80002143,11 C6.46152582,11 7,11.5384937 7,12.2000386 L7,15.8000043 L7,15.7999829 Z M8.99577057,9.82911188 L13.8333229,4.99152306 L13.8333229,8.83332952 C13.8333229,9.15574932 14.0942351,9.41668538 14.416651,9.41668538 C14.7385253,9.41668538 15,9.15574932 15,8.83330868 L15,3.5833142 C15,3.2608944 14.7385253,3 14.416651,3 L9.16667708,3 C8.84424027,3 8.58332812,3.2608944 8.58332812,3.5833142 C8.58332812,3.90575484 8.84424027,4.16664924 9.16667708,4.16664924 L13.0084172,4.16664924 L8.17088568,9.00423805 C7.94303811,9.23208833 7.94303811,9.60124077 8.17088568,9.82909105 C8.28014952,9.93867053 8.42858339,10.0001788 8.58332812,10 C8.73806986,10.0001843 8.88650331,9.93868372 8.99577057,9.82911188 L8.99577057,9.82911188 Z M15.7499648,0 L2.24999498,0 C1.00907429,0 0,1.009091 0,2.24998744 L0,8.437473 C0,8.74837517 0.251595535,8.99998995 0.562498744,8.99998995 C0.872859506,8.99998995 1.12501758,8.74837517 1.12501758,8.43745291 L1.12501758,2.25002762 C1.12501758,1.62983054 1.62927345,1.12501381 2.24999498,1.12501381 L15.7499849,1.12501381 C16.3701841,1.12501381 16.8750025,1.62985063 16.8750025,2.25002762 L16.8750025,15.7499523 C16.8750025,16.3701494 16.370164,16.8749661 15.7499849,16.8749661 L9.56249874,16.8749661 C9.25157544,16.8749661 8.99997991,17.1265608 8.99997991,17.437463 C8.99997991,17.7484053 9.25157544,18 9.56249874,18 L15.7499849,18 C16.9903431,18 18,16.990909 18,15.7499724 L18,2.24998744 C18,1.00907091 16.9903431,0 15.7499849,0 L15.7499648,0 Z" id="形状"></path>
                </g>
            </g>
        </g>
    </g>
</svg>