<?xml version="1.0" encoding="UTF-8"?>
<svg width="128px" height="128px" viewBox="0 0 128 128" version="1.1" xmlns="http://www.w3.org/2000/svg" xmlns:xlink="http://www.w3.org/1999/xlink">
    <!-- Generator: Sketch 56.2 (81672) - https://sketch.com -->
    <title>fail</title>
    <desc>Created with Sketch.</desc>
    <defs>
        <linearGradient x1="50%" y1="0%" x2="50%" y2="100%" id="linearGradient-1">
            <stop stop-color="#FF674A" offset="0%"></stop>
            <stop stop-color="#EC5783" offset="100%"></stop>
        </linearGradient>
        <circle id="path-2" cx="64" cy="64" r="49"></circle>
        <filter x="-12.2%" y="-6.1%" width="124.5%" height="124.5%" filterUnits="objectBoundingBox" id="filter-3">
            <feOffset dx="0" dy="6" in="SourceAlpha" result="shadowOffsetOuter1"></feOffset>
            <feGaussianBlur stdDeviation="3" in="shadowOffsetOuter1" result="shadowBlurOuter1"></feGaussianBlur>
            <feColorMatrix values="0 0 0 0 1   0 0 0 0 0.443137255   0 0 0 0 0.443137255  0 0 0 0.3 0" type="matrix" in="shadowBlurOuter1"></feColorMatrix>
        </filter>
    </defs>
    <g id="Page-1" stroke="none" stroke-width="1" fill="none" fill-rule="evenodd">
        <g id="按钮规范" transform="translate(-226.000000, -288.000000)">
            <g id="fail" transform="translate(226.000000, 288.000000)">
                <g id="icon/fail" transform="translate(0.000000, -0.000000)">
                    <g id="Oval-1">
                        <use fill="black" fill-opacity="1" filter="url(#filter-3)" xlink:href="#path-2"></use>
                        <use fill="url(#linearGradient-1)" fill-rule="evenodd" xlink:href="#path-2"></use>
                    </g>
                    <path d="M61.8492424,64.8223305 L45.5857864,48.5588745 C44.8047379,47.7778259 44.8047379,46.511496 45.5857864,45.7304474 C46.366835,44.9493988 47.633165,44.9493988 48.4142136,45.7304474 L64.6776695,61.9939033 L80.9411255,45.7304474 C81.7221741,44.9493988 82.988504,44.9493988 83.7695526,45.7304474 C84.5506012,46.511496 84.5506012,47.7778259 83.7695526,48.5588745 L67.5060967,64.8223305 L83.7695526,81.0857864 C84.5506012,81.866835 84.5506012,83.133165 83.7695526,83.9142136 C82.988504,84.6952621 81.7221741,84.6952621 80.9411255,83.9142136 L64.6776695,67.6507576 L48.4142136,83.9142136 C47.633165,84.6952621 46.366835,84.6952621 45.5857864,83.9142136 C44.8047379,83.133165 44.8047379,81.866835 45.5857864,81.0857864 L61.8492424,64.8223305 Z" id="形状结合" fill="#FFFFFF" fill-rule="nonzero"></path>
                </g>
            </g>
        </g>
    </g>
</svg>