<?xml version="1.0" encoding="UTF-8"?>
<svg width="48px" height="48px" viewBox="0 0 48 48" version="1.1" xmlns="http://www.w3.org/2000/svg" xmlns:xlink="http://www.w3.org/1999/xlink">
    <title>中间音符</title>
    <defs>
        <linearGradient x1="34.72375%" y1="100%" x2="58.1542187%" y2="0%" id="linearGradient-1">
            <stop stop-color="#F82626" offset="0%"></stop>
            <stop stop-color="#ED5656" offset="100%"></stop>
        </linearGradient>
        <linearGradient x1="50%" y1="0%" x2="50%" y2="100%" id="linearGradient-2">
            <stop stop-color="#FFFFFF" offset="0%"></stop>
            <stop stop-color="#FFFFFF" stop-opacity="0.7" offset="100%"></stop>
        </linearGradient>
    </defs>
    <g id="浅色主题" stroke="none" stroke-width="1" fill="none" fill-rule="evenodd">
        <g id="影院浅色1备份-5" transform="translate(-936.000000, -501.000000)">
            <g id="编组-3" transform="translate(872.336112, 438.000000)">
                <g id="编组-2" transform="translate(0.663888, 0.000000)">
                    <g id="编组-4" transform="translate(62.840148, 62.840148)">
                        <path d="M24.1598522,0.159852243 C37.4146862,0.159852243 48.1598522,10.9050182 48.1598522,24.1598522 C48.1598522,37.4146862 37.4146862,48.1598522 24.1598522,48.1598522 C10.9050182,48.1598522 0.159852243,37.4146862 0.159852243,24.1598522 C0.159852243,10.9050182 10.9050182,0.159852243 24.1598522,0.159852243 Z" id="Rectangle" fill="url(#linearGradient-1)"></path>
                        <path d="M33.6794134,13.0911581 C33.7130055,13.265592 33.7299159,13.4428276 33.7299159,13.6204665 L33.7299159,28.4358022 L33.7266595,28.4349025 L33.7299159,28.5571678 C33.7299159,30.4361971 32.2917683,31.9713105 30.4809816,32.0715636 L30.2923732,32.0767714 C28.3938708,32.0767714 26.8548305,30.5009912 26.8548305,28.5571678 C26.8548305,26.6133445 28.3938708,25.0375643 30.2923732,25.0375643 C31.0373717,25.0375643 31.7270172,25.2802164 32.290031,25.6925405 L32.2894218,15.7143348 C32.2894218,15.1990446 31.8716967,14.7813195 31.3564065,14.7813195 C31.3014598,14.7813195 31.2466205,14.7861733 31.1925281,14.7958243 L20.8111421,16.648047 C20.3675265,16.7271958 20.0438717,17.1120921 20.0420132,17.5627094 L19.979745,32.6605106 L19.9756595,32.6599025 L19.979745,32.7806922 C19.979745,34.6597214 18.5415973,36.1948348 16.7308106,36.2950879 L16.5422023,36.3002957 C14.6436998,36.3002957 13.1046595,34.7245155 13.1046595,32.7806922 C13.1046595,30.8368688 14.6436998,29.2610886 16.5422023,29.2610886 C17.31652,29.2610886 18.0310422,29.5232156 18.6057391,29.9655295 L18.6047279,15.4551737 C18.6047279,14.1133965 19.5568975,12.9603647 20.8744654,12.7066304 L30.4015616,10.8719232 C31.9195402,10.5795942 33.3870844,11.5731795 33.6794134,13.0911581 Z" id="Combined-Shape" fill="url(#linearGradient-2)"></path>
                    </g>
                </g>
            </g>
        </g>
    </g>
</svg>