<?xml version="1.0" encoding="UTF-8"?>
<svg width="36px" height="36px" viewBox="0 0 36 36" version="1.1" xmlns="http://www.w3.org/2000/svg" xmlns:xlink="http://www.w3.org/1999/xlink">
    <!-- Generator: Sketch 56.2 (81672) - https://sketch.com -->
    <title>delete</title>
    <desc>Created with Sketch.</desc>
    <g id="页面-1" stroke="none" stroke-width="1" fill="none" fill-rule="evenodd">
        <g id="按钮规范" transform="translate(-499.000000, -54.000000)" fill="#E3394B">
            <g id="删除-copy-2" transform="translate(491.000000, 47.000000)">
                <g id="line34500-2" transform="translate(8.000000, 7.000000)">
                    <path d="M19,10 L16,10 L15,10 L15,11 L16,11 L19,11 L20,11 L20,10 L19,10 Z M10,13 L11,13 L24,13 L25,13 L25,12 L24,12 L11,12 L10,12 L10,13 Z M12,15 L12,26 L13,26 L22,26 L23,26 L23,15 L23,14 L22,14 L22,15 L22,25 L13,25 L13,15 L13,14 L12,14 L12,15 Z M15,16 L15,23 L15,24 L16,24 L16,23 L16,16 L16,15 L15,15 L15,16 Z M17,16 L17,23 L17,24 L18,24 L18,23 L18,16 L18,15 L17,15 L17,16 Z M19,16 L19,23 L19,24 L20,24 L20,23 L20,16 L20,15 L19,15 L19,16 Z" id="line34500"></path>
                </g>
            </g>
        </g>
    </g>
</svg>