<?xml version="1.0" encoding="UTF-8"?>
<svg width="16px" height="16px" viewBox="0 0 16 16" version="1.1" xmlns="http://www.w3.org/2000/svg" xmlns:xlink="http://www.w3.org/1999/xlink">
    <!-- Generator: Sketch 43.1 (39012) - http://www.bohemiancoding.com/sketch -->
    <title>深度影院-16px</title>
    <desc>Created with Sketch.</desc>
    <defs>
        <linearGradient x1="49.9992343%" y1="0%" x2="49.9992343%" y2="100%" id="linearGradient-1">
            <stop stop-color="#1FA7FA" offset="0%"></stop>
            <stop stop-color="#0480F7" offset="100%"></stop>
        </linearGradient>
        <linearGradient x1="59.7278481%" y1="50.2995405%" x2="8.98818374%" y2="51.7004395%" id="linearGradient-2">
            <stop stop-color="#3EB5FB" offset="0%"></stop>
            <stop stop-color="#479CFF" offset="100%"></stop>
        </linearGradient>
    </defs>
    <g id="Page-1" stroke="none" stroke-width="1" fill="none" fill-rule="evenodd">
        <g id="深度影院-16px">
            <path d="M15.0000003,2 L2.5,2 L3.3619456,14 L15.0000003,13.9999997 L15.0000003,2 Z M13.9954312,4 L13,4 L13,3 L13.9954312,3 L13.9954312,4 Z M5,3 L5,4 L4,4 L4,3 L5,3 L5,3 L5,3 L5,3 Z M11,3 L11,4 L10,4 L10,3 L11,3 L11,3 L11,3 L11,3 Z M8,3 L8,4 L7,4 L7,3 L8,3 L8,3 L8,3 L8,3 Z M13.9954312,13 L13,13 L13,12 L13.9954312,12 L13.9954312,13 Z M8,13 L7,13 L7,12 L8,12 L8,13 Z M11,12 L11,13 L10,13 L10,12 L11,12 L11,12 L11,12 L11,12 Z" id="Combined-Shape" fill="url(#linearGradient-1)"></path>
            <path d="M5.67277622,15 L2.1677113,15 C2.0827113,14.9964178 1.83437797,15 1.83437797,14.6116821 L1.00104464,1.71644392 C0.995377971,1.62760487 1.00104464,1.42987072 1.33437799,1.35822196 L3.00104464,1 C3.33437797,1 3.32604464,1.25003893 3.33437797,1.35822196 C3.41837797,2.46441138 3.80810973,7.21511994 3.91844306,8.52836164 C4.06877639,10.318755 4.98106078,10.6712405 5.33437797,10.6712405 C5.67277627,10.6712405 5.6671096,10.9502954 5.67277627,11.0294625 L6.00104459,14.6002253 C6.00104467,14.9738459 5.67277622,15 5.67277622,15 Z" id="path11604" fill="url(#linearGradient-2)"></path>
            <path d="M7.29118377,10.6579036 C7.12999662,10.7458266 6.99932861,10.6667151 6.99932861,10.4822297 L6.99932861,5.5295178 C6.99932861,5.3445728 7.12672568,5.26413669 7.29118377,5.35384384 L11.8612353,7.84667516 C12.0224225,7.93459811 12.0256934,8.07536516 11.8612353,8.1650723 L7.29118377,10.6579036 Z" id="Path-359" fill="#FFFFFF"></path>
        </g>
    </g>
</svg>