<?xml version="1.0" encoding="UTF-8"?>
<svg width="42px" height="24px" viewBox="0 0 42 24" version="1.1" xmlns="http://www.w3.org/2000/svg" xmlns:xlink="http://www.w3.org/1999/xlink">
    <title>music-dark</title>
    <g id="深色主题" stroke="none" stroke-width="1" fill="none" fill-rule="evenodd">
        <g id="music-dark">
            <rect id="Rectangle" fill="#252525" x="0" y="0" width="42" height="24" rx="4"></rect>
            <path d="M26,6 C27.1045695,6 28,6.89543049 28,8 L28,16 C28,17.1045695 27.1045695,18 26,18 L16,18 C14.8954305,18 14,17.1045695 14,16 L14,8 C14,6.89543049 14.8954305,6 16,6 L26,6 Z M17,15 L15,15 L15,16 C15,16.5522847 15.4477153,17 16,17 L16,17 L17,17 L17,15 Z M27,15 L25,15 L25,17 L26,17 C26.5522847,17 27,16.5522847 27,16 L27,16 L27,15 Z M20.5,10.4342585 C20.2238576,10.4342585 20,10.6581162 20,10.9342585 L20,10.9342585 L20,13.0657415 C20,13.1644539 20.029219,13.2609578 20.0839749,13.3430916 C20.2371511,13.5728559 20.5475858,13.6349428 20.7773501,13.4817666 L20.7773501,13.4817666 L22.3759623,12.4160251 C22.4308884,12.3794077 22.4780199,12.3322762 22.5146373,12.2773501 C22.6678136,12.0475858 22.6057266,11.7371511 22.3759623,11.5839749 L22.3759623,11.5839749 L20.7773501,10.5182334 C20.6952163,10.4634776 20.5987125,10.4342585 20.5,10.4342585 Z M17,11 L15,11 L15,13 L17,13 L17,11 Z M27,11 L25,11 L25,13 L27,13 L27,11 Z M17,7 L16,7 C15.4477153,7 15,7.44771525 15,8 L15,8 L15,9 L17,9 L17,7 Z M26,7 L25,7 L25,9 L27,9 L27,8 C27,7.44771525 26.5522847,7 26,7 L26,7 Z" id="形状结合" fill="#FFFFFF" fill-rule="nonzero" opacity="0.3"></path>
        </g>
    </g>
</svg>