<?xml version="1.0" encoding="UTF-8"?>
<svg width="32px" height="32px" viewBox="0 0 32 32" version="1.1" xmlns="http://www.w3.org/2000/svg" xmlns:xlink="http://www.w3.org/1999/xlink">
    <!-- Generator: Sketch 56.2 (81672) - https://sketch.com -->
    <title>deepin-cloudprint-config-helper</title>
    <desc>Created with Sketch.</desc>
    <defs>
        <linearGradient x1="50%" y1="0%" x2="50%" y2="97.6283482%" id="linearGradient-1">
            <stop stop-color="#FFD200" offset="0%"></stop>
            <stop stop-color="#FFB223" offset="100%"></stop>
        </linearGradient>
        <path d="M1,16 C1,13.958324 1.39582936,12.013032 2.1875,10.164064 C2.9791708,8.315096 4.044264,6.72136 5.382812,5.382812 C6.72136,4.044264 8.315096,2.979172 10.164064,2.1875 C12.013032,1.395828 13.958324,1 16,1 C18.03126,1 19.971344,1.395828 21.820312,2.1875 C23.66928,2.979172 25.26562,4.044264 26.609376,5.382812 C27.953132,6.72136 29.020828,8.315096 29.8125,10.164064 C30.604172,12.013032 31,13.958324 31,16 C31,18.03126 30.604172,19.973948 29.8125,21.828124 C29.020828,23.6823 27.953132,25.27864 26.609376,26.617188 C25.26562,27.955736 23.66928,29.0208292 21.820312,29.8125 C19.971344,30.6041706 18.03126,31 16,31 C13.958324,31 12.013032,30.6041706 10.164064,29.8125 C8.315096,29.0208292 6.72136,27.955736 5.382812,26.617188 C4.044264,25.27864 2.9791708,23.6823 2.1875,21.828124 C1.39582936,19.973948 1,18.03126 1,16 L1,16 Z" id="path-2"></path>
        <filter x="-6.7%" y="-3.3%" width="113.3%" height="113.3%" filterUnits="objectBoundingBox" id="filter-3">
            <feOffset dx="0" dy="1" in="SourceAlpha" result="shadowOffsetOuter1"></feOffset>
            <feGaussianBlur stdDeviation="0.5" in="shadowOffsetOuter1" result="shadowBlurOuter1"></feGaussianBlur>
            <feColorMatrix values="0 0 0 0 0   0 0 0 0 0   0 0 0 0 0  0 0 0 0.2 0" type="matrix" in="shadowBlurOuter1"></feColorMatrix>
        </filter>
    </defs>
    <g id="Page-1" stroke="none" stroke-width="1" fill="none" fill-rule="evenodd">
        <g id="按钮规范" transform="translate(-59.000000, -37.000000)">
            <g id="deepin-cloudprint-config-helper" transform="translate(59.000000, 36.000000)">
                <g id="Page-1-+-Path-+-Rectangle-115">
                    <g id="Page-1">
                        <use fill="black" fill-opacity="1" filter="url(#filter-3)" xlink:href="#path-2"></use>
                        <use fill="url(#linearGradient-1)" fill-rule="evenodd" xlink:href="#path-2"></use>
                    </g>
                    <path d="M13.7777778,22.2013889 C13.7777778,22.8472249 14.0069458,23.3993049 14.4652818,23.8576369 C14.9236138,24.3159729 15.4756938,24.5451409 16.1215298,24.5451409 C16.7673658,24.5451409 17.3194458,24.3159729 17.7777778,23.8576369 C18.2361138,23.3993049 18.4652818,22.8472249 18.4652818,22.2013889 C18.4652818,21.5555529 18.2361138,21.0034729 17.7777778,20.5451409 C17.3402778,20.1076369 16.7881978,19.8888889 16.1215298,19.8888889 C15.4548618,19.8888889 14.9027818,20.1076369 14.4652818,20.5451409 C14.0069458,21.0034729 13.7777778,21.5555529 13.7777778,22.2013889 L13.7777778,22.2013889 Z" id="Path" fill="#FFFFFF"></path>
                    <rect id="Rectangle-115" fill="#FFFFFF" x="14.3333333" y="6.55555556" width="3.33333333" height="11.1111111" rx="1.66666667"></rect>
                </g>
            </g>
        </g>
    </g>
</svg>