<svg xmlns="http://www.w3.org/2000/svg" width="96" height="96" viewBox="0 0 96 96">
  <defs>
    <filter id="deepin-movie-a" width="127.3%" height="127.3%" x="-13.6%" y="-13.6%" filterUnits="objectBoundingBox">
      <feOffset dy="2" in="SourceAlpha" result="shadowOffsetOuter1"/>
      <feGaussianBlur in="shadowOffsetOuter1" result="shadowBlurOuter1" stdDeviation="2"/>
      <feComposite in="shadowBlurOuter1" in2="SourceAlpha" operator="out" result="shadowBlurOuter1"/>
      <feColorMatrix in="shadowBlurOuter1" result="shadowMatrixOuter1" values="0 0 0 0 0   0 0 0 0 0   0 0 0 0 0  0 0 0 0.2 0"/>
      <feMerge>
        <feMergeNode in="shadowMatrixOuter1"/>
        <feMergeNode in="SourceGraphic"/>
      </feMerge>
    </filter>
    <linearGradient id="deepin-movie-b" x1="50%" x2="50%" y1="2.375%" y2="100%">
      <stop offset="0%" stop-color="#3E3E3E"/>
      <stop offset="100%" stop-color="#0F0F0F"/>
    </linearGradient>
    <linearGradient id="deepin-movie-c" x1="40.768%" x2="50%" y1="0%" y2="100%">
      <stop offset="0%" stop-color="#B0FAFF"/>
      <stop offset="100%" stop-color="#0D96C2"/>
    </linearGradient>
  </defs>
  <g fill="none" fill-rule="evenodd" filter="url(#deepin-movie-a)" transform="translate(4 4)">
    <circle cx="44" cy="44" r="42" fill="url(#deepin-movie-b)" stroke="url(#deepin-movie-c)" stroke-width="4"/>
    <path fill="#FF006B" d="M36.5824118,63.1103799 C32.9470461,65.1982037 30,63.4867104 30,59.2786432 L30,28.7164798 C30,24.5124463 32.9635684,22.8064082 36.5824118,24.8847431 L63.2796681,40.2172221 C66.9150337,42.3050459 66.8985115,45.699566 63.2796681,47.7779009 L36.5824118,63.1103799 Z"/>
    <path fill="#FFB600" d="M42,27.9971137 L54,34.8881137 L54,53.1061137 L42,59.9981137 L42,27.9971137 Z"/>
    <path fill="#1473FF" d="M36.5824118,24.8847431 L42,27.996 L42,59.998 L36.5824118,63.1103799 C32.9470461,65.1982037 30,63.4867104 30,59.2786432 L30,28.7164798 C30,24.5124463 32.9635684,22.8064082 36.5824118,24.8847431 Z"/>
    <path stroke="#FFF" stroke-opacity=".3" stroke-width="2" d="M36.0843909,62.2432149 L62.7816473,46.9107359 C65.7376186,45.2130944 65.7412819,42.7841325 62.7816473,41.0843872 L36.0843909,25.7519082 C33.1269531,24.0534245 31,25.2873038 31,28.7164798 L31,59.2786432 C31,62.7177005 33.1155014,63.9482753 36.0843909,62.2432149 Z"/>
  </g>
</svg>
