<?xml version="1.0" encoding="UTF-8"?>
<svg width="25px" height="24px" viewBox="0 0 25 24" version="1.1" xmlns="http://www.w3.org/2000/svg" xmlns:xlink="http://www.w3.org/1999/xlink">
    <title>apps/128/deepin-movie</title>
    <defs>
        <filter x="-10.1%" y="-5.2%" width="120.1%" height="120.9%" filterUnits="objectBoundingBox" id="filter-1">
            <feOffset dx="0" dy="1" in="SourceAlpha" result="shadowOffsetOuter1"></feOffset>
            <feGaussianBlur stdDeviation="0.5" in="shadowOffsetOuter1" result="shadowBlurOuter1"></feGaussianBlur>
            <feColorMatrix values="0 0 0 0 0   0 0 0 0 0   0 0 0 0 0  0 0 0 0.20036604 0" type="matrix" in="shadowBlurOuter1" result="shadowMatrixOuter1"></feColorMatrix>
            <feMerge>
                <feMergeNode in="shadowMatrixOuter1"></feMergeNode>
                <feMergeNode in="SourceGraphic"></feMergeNode>
            </feMerge>
        </filter>
        <linearGradient x1="50%" y1="2.37536127%" x2="50%" y2="98.7615748%" id="linearGradient-2">
            <stop stop-color="#676767" offset="0%"></stop>
            <stop stop-color="#3E3E3E" offset="98.2927229%"></stop>
        </linearGradient>
        <path d="M3.8458278,0 L16.0291722,2.26708535e-16 C17.3664503,-1.31724187e-16 17.8513797,0.139238417 18.3402686,0.400699056 C18.8291574,0.662159695 19.2128403,1.04584256 19.4743009,1.53473144 C19.7357616,2.02362033 19.875,2.50854969 19.875,3.8458278 L19.875,15.2791722 C19.875,16.6164503 19.7357616,17.1013797 19.4743009,17.5902686 C19.2128403,18.0791574 18.8291574,18.4628403 18.3402686,18.7243009 C17.8513797,18.9857616 17.3664503,19.125 16.0291722,19.125 L3.8458278,19.125 C2.50854969,19.125 2.02362033,18.9857616 1.53473144,18.7243009 C1.04584256,18.4628403 0.662159695,18.0791574 0.400699056,17.5902686 C0.139238417,17.1013797 -4.4408921e-16,16.6164503 -4.4408921e-16,15.2791722 L0,3.8458278 C0,2.50854969 0.139238417,2.02362033 0.400699056,1.53473144 C0.662159695,1.04584256 1.04584256,0.662159695 1.53473144,0.400699056 C2.02362033,0.139238417 2.50854969,0 3.8458278,0 Z" id="path-3"></path>
        <filter x="-7.5%" y="-7.8%" width="115.1%" height="115.7%" filterUnits="objectBoundingBox" id="filter-4">
            <feGaussianBlur stdDeviation="1" in="SourceAlpha" result="shadowBlurInner1"></feGaussianBlur>
            <feOffset dx="0" dy="-1" in="shadowBlurInner1" result="shadowOffsetInner1"></feOffset>
            <feComposite in="shadowOffsetInner1" in2="SourceAlpha" operator="arithmetic" k2="-1" k3="1" result="shadowInnerInner1"></feComposite>
            <feColorMatrix values="0 0 0 0 0   0 0 0 0 0.108032992   0 0 0 0 0.378311821  0 0 0 0.2 0" type="matrix" in="shadowInnerInner1"></feColorMatrix>
        </filter>
        <linearGradient x1="40.7675756%" y1="0%" x2="40.7675756%" y2="100%" id="linearGradient-5">
            <stop stop-color="#FFFFFF" stop-opacity="0.2" offset="0%"></stop>
            <stop stop-color="#000000" stop-opacity="0.2" offset="100%"></stop>
        </linearGradient>
    </defs>
    <g id="apps/128/deepin-movie" stroke="none" fill="none" transform="translate(0.75, 0)">
        <g id="7-movie" filter="url(#filter-1)" stroke-width="1" fill-rule="evenodd" transform="translate(2.0625, 2.4375)">
            <g id="Rectangle-245">
                <use fill="url(#linearGradient-2)" fill-rule="evenodd" xlink:href="#path-3"></use>
                <use fill="black" fill-opacity="1" filter="url(#filter-4)" xlink:href="#path-3"></use>
            </g>
            <path d="M16.0291722,0 C17.3664503,0 17.8513797,0.139238417 18.3402686,0.400699056 C18.8291574,0.662159695 19.2128403,1.04584256 19.4743009,1.53473144 C19.7357616,2.02362033 19.875,2.50854969 19.875,3.8458278 L19.875,15.2791722 C19.875,16.6164503 19.7357616,17.1013797 19.4743009,17.5902686 C19.2128403,18.0791574 18.8291574,18.4628403 18.3402686,18.7243009 C17.8513797,18.9857616 17.3664503,19.125 16.0291722,19.125 L3.8458278,19.125 C2.50854969,19.125 2.02362033,18.9857616 1.53473144,18.7243009 C1.04584256,18.4628403 0.662159695,18.0791574 0.400699056,17.5902686 C0.139238417,17.1013797 0,16.6164503 0,15.2791722 L0,3.8458278 C0,2.50854969 0.139238417,2.02362033 0.400699056,1.53473144 C0.662159695,1.04584256 1.04584256,0.662159695 1.53473144,0.400699056 C2.02362033,0.139238417 2.50854969,0 3.8458278,0 L16.0291722,0 Z M3.8458278,0.1875 C2.65490874,0.1875 2.14788562,0.285410682 1.62315623,0.56603903 C1.16694268,0.810024707 0.810024707,1.16694268 0.56603903,1.62315623 C0.285410682,2.14788562 0.1875,2.65490874 0.1875,3.8458278 L0.1875,15.2791722 C0.1875,16.4700913 0.285410682,16.9771144 0.56603903,17.5018438 C0.810024707,17.9580573 1.16694268,18.3149753 1.62315623,18.558961 C2.14788562,18.8395893 2.65490874,18.9375 3.8458278,18.9375 L16.0291722,18.9375 C17.2200913,18.9375 17.7271144,18.8395893 18.2518438,18.558961 C18.7080573,18.3149753 19.0649753,17.9580573 19.308961,17.5018438 C19.5895893,16.9771144 19.6875,16.4700913 19.6875,15.2791722 L19.6875,3.8458278 C19.6875,2.65490874 19.5895893,2.14788562 19.308961,1.62315623 C19.0649753,1.16694268 18.7080573,0.810024707 18.2518438,0.56603903 C17.7271144,0.285410682 17.2200913,0.1875 16.0291722,0.1875 L3.8458278,0.1875 Z" id="Rectangle-245" fill="url(#linearGradient-5)" fill-rule="nonzero"></path>
            <path d="M2.53086711,1.3125 L3.85902868,1.3125 C4.08190837,1.3125 4.16272993,1.3357064 4.24421142,1.37928318 C4.3256929,1.42285995 4.38964005,1.4868071 4.43321682,1.56828858 C4.4767936,1.64977007 4.5,1.73059163 4.5,1.95347132 L4.5,3.48402868 C4.5,3.70690837 4.4767936,3.78772993 4.43321682,3.86921142 C4.38964005,3.9506929 4.3256929,4.01464005 4.24421142,4.05821682 C4.16272993,4.1017936 4.08190837,4.125 3.85902868,4.125 L1.95347132,4.125 C1.73059163,4.125 1.64977007,4.1017936 1.56828858,4.05821682 C1.4868071,4.01464005 1.42285995,3.9506929 1.37928318,3.86921142 C1.3357064,3.78772993 1.3125,3.70690837 1.3125,3.48402868 L1.3125,2.53086711 C1.3125,2.16139836 1.35891281,1.98704013 1.44606636,1.82407716 C1.5332199,1.6611142 1.6611142,1.5332199 1.82407716,1.44606636 C1.98704013,1.35891281 2.16139836,1.3125 2.53086711,1.3125 Z M16.0159713,1.3125 L17.3441329,1.3125 C17.7136016,1.3125 17.8879599,1.35891281 18.0509228,1.44606636 C18.2138858,1.5332199 18.3417801,1.6611142 18.4289336,1.82407716 C18.5160872,1.98704013 18.5625,2.16139836 18.5625,2.53086711 L18.5625,3.48402868 C18.5625,3.70690837 18.5392936,3.78772993 18.4957168,3.86921142 C18.45214,3.9506929 18.3881929,4.01464005 18.3067114,4.05821682 C18.2252299,4.1017936 18.1444084,4.125 17.9215287,4.125 L16.0159713,4.125 C15.7930916,4.125 15.7122701,4.1017936 15.6307886,4.05821682 C15.5493071,4.01464005 15.48536,3.9506929 15.4417832,3.86921142 C15.3982064,3.78772993 15.375,3.70690837 15.375,3.48402868 L15.375,1.95347132 C15.375,1.73059163 15.3982064,1.64977007 15.4417832,1.56828858 C15.48536,1.4868071 15.5493071,1.42285995 15.6307886,1.37928318 C15.7122701,1.3357064 15.7930916,1.3125 16.0159713,1.3125 Z M1.95347132,5.8125 L3.85902868,5.8125 C4.08190837,5.8125 4.16272993,5.8357064 4.24421142,5.87928318 C4.3256929,5.92285995 4.38964005,5.9868071 4.43321682,6.06828858 C4.4767936,6.14977007 4.5,6.23059163 4.5,6.45347132 L4.5,7.98402868 C4.5,8.20690837 4.4767936,8.28772993 4.43321682,8.36921142 C4.38964005,8.4506929 4.3256929,8.51464005 4.24421142,8.55821682 C4.16272993,8.6017936 4.08190837,8.625 3.85902868,8.625 L1.95347132,8.625 C1.73059163,8.625 1.64977007,8.6017936 1.56828858,8.55821682 C1.4868071,8.51464005 1.42285995,8.4506929 1.37928318,8.36921142 C1.3357064,8.28772993 1.3125,8.20690837 1.3125,7.98402868 L1.3125,6.45347132 C1.3125,6.23059163 1.3357064,6.14977007 1.37928318,6.06828858 C1.42285995,5.9868071 1.4868071,5.92285995 1.56828858,5.87928318 C1.64977007,5.8357064 1.73059163,5.8125 1.95347132,5.8125 Z M16.0159713,5.8125 L17.9215287,5.8125 C18.1444084,5.8125 18.2252299,5.8357064 18.3067114,5.87928318 C18.3881929,5.92285995 18.45214,5.9868071 18.4957168,6.06828858 C18.5392936,6.14977007 18.5625,6.23059163 18.5625,6.45347132 L18.5625,7.98402868 C18.5625,8.20690837 18.5392936,8.28772993 18.4957168,8.36921142 C18.45214,8.4506929 18.3881929,8.51464005 18.3067114,8.55821682 C18.2252299,8.6017936 18.1444084,8.625 17.9215287,8.625 L16.0159713,8.625 C15.7930916,8.625 15.7122701,8.6017936 15.6307886,8.55821682 C15.5493071,8.51464005 15.48536,8.4506929 15.4417832,8.36921142 C15.3982064,8.28772993 15.375,8.20690837 15.375,7.98402868 L15.375,6.45347132 C15.375,6.23059163 15.3982064,6.14977007 15.4417832,6.06828858 C15.48536,5.9868071 15.5493071,5.92285995 15.6307886,5.87928318 C15.7122701,5.8357064 15.7930916,5.8125 16.0159713,5.8125 Z M1.95347132,10.3125 L3.85902868,10.3125 C4.08190837,10.3125 4.16272993,10.3357064 4.24421142,10.3792832 C4.3256929,10.42286 4.38964005,10.4868071 4.43321682,10.5682886 C4.4767936,10.6497701 4.5,10.7305916 4.5,10.9534713 L4.5,12.4840287 C4.5,12.7069084 4.4767936,12.7877299 4.43321682,12.8692114 C4.38964005,12.9506929 4.3256929,13.01464 4.24421142,13.0582168 C4.16272993,13.1017936 4.08190837,13.125 3.85902868,13.125 L1.95347132,13.125 C1.73059163,13.125 1.64977007,13.1017936 1.56828858,13.0582168 C1.4868071,13.01464 1.42285995,12.9506929 1.37928318,12.8692114 C1.3357064,12.7877299 1.3125,12.7069084 1.3125,12.4840287 L1.3125,10.9534713 C1.3125,10.7305916 1.3357064,10.6497701 1.37928318,10.5682886 C1.42285995,10.4868071 1.4868071,10.42286 1.56828858,10.3792832 C1.64977007,10.3357064 1.73059163,10.3125 1.95347132,10.3125 Z M16.0159713,10.3125 L17.9215287,10.3125 C18.1444084,10.3125 18.2252299,10.3357064 18.3067114,10.3792832 C18.3881929,10.42286 18.45214,10.4868071 18.4957168,10.5682886 C18.5392936,10.6497701 18.5625,10.7305916 18.5625,10.9534713 L18.5625,12.4840287 C18.5625,12.7069084 18.5392936,12.7877299 18.4957168,12.8692114 C18.45214,12.9506929 18.3881929,13.01464 18.3067114,13.0582168 C18.2252299,13.1017936 18.1444084,13.125 17.9215287,13.125 L16.0159713,13.125 C15.7930916,13.125 15.7122701,13.1017936 15.6307886,13.0582168 C15.5493071,13.01464 15.48536,12.9506929 15.4417832,12.8692114 C15.3982064,12.7877299 15.375,12.7069084 15.375,12.4840287 L15.375,10.9534713 C15.375,10.7305916 15.3982064,10.6497701 15.4417832,10.5682886 C15.48536,10.4868071 15.5493071,10.42286 15.6307886,10.3792832 C15.7122701,10.3357064 15.7930916,10.3125 16.0159713,10.3125 Z M1.95347132,15 L3.85902868,15 C4.08190837,15 4.16272993,15.0232064 4.24421142,15.0667832 C4.3256929,15.11036 4.38964005,15.1743071 4.43321682,15.2557886 C4.4767936,15.3372701 4.5,15.4180916 4.5,15.6409713 L4.5,17.1715287 C4.5,17.3944084 4.4767936,17.4752299 4.43321682,17.5567114 C4.38964005,17.6381929 4.3256929,17.70214 4.24421142,17.7457168 C4.16272993,17.7892936 4.08190837,17.8125 3.85902868,17.8125 L2.53086711,17.8125 C2.16139836,17.8125 1.98704013,17.7660872 1.82407716,17.6789336 C1.6611142,17.5917801 1.5332199,17.4638858 1.44606636,17.3009228 C1.35891281,17.1379599 1.3125,16.9636016 1.3125,16.5941329 L1.3125,15.6409713 C1.3125,15.4180916 1.3357064,15.3372701 1.37928318,15.2557886 C1.42285995,15.1743071 1.4868071,15.11036 1.56828858,15.0667832 C1.64977007,15.0232064 1.73059163,15 1.95347132,15 Z M16.0159713,15 L17.9215287,15 C18.1444084,15 18.2252299,15.0232064 18.3067114,15.0667832 C18.3881929,15.11036 18.45214,15.1743071 18.4957168,15.2557886 C18.5392936,15.3372701 18.5625,15.4180916 18.5625,15.6409713 L18.5625,16.5941329 C18.5625,16.9636016 18.5160872,17.1379599 18.4289336,17.3009228 C18.3417801,17.4638858 18.2138858,17.5917801 18.0509228,17.6789336 C17.8879599,17.7660872 17.7136016,17.8125 17.3441329,17.8125 L16.0159713,17.8125 C15.7930916,17.8125 15.7122701,17.7892936 15.6307886,17.7457168 C15.5493071,17.70214 15.48536,17.6381929 15.4417832,17.5567114 C15.3982064,17.4752299 15.375,17.3944084 15.375,17.1715287 L15.375,15.6409713 C15.375,15.4180916 15.3982064,15.3372701 15.4417832,15.2557886 C15.48536,15.1743071 15.5493071,15.11036 15.6307886,15.0667832 C15.7122701,15.0232064 15.7930916,15 16.0159713,15 Z" id="形状结合" fill="#FFFFFF" opacity="0.100000001"></path>
            <g id="编组" transform="translate(5.4375, 4.0982)" fill="#FFFFFF">
                <path d="M1.75079063,10.6855145 C0.783855663,11.2559378 0,10.7883334 0,9.63862931 L0,1.28860966 C0,0.14000764 0.788250255,-0.326106334 1.75079063,0.241724456 L8.8517299,4.43077676 C9.81866487,5.00120005 9.81427027,5.92863143 8.8517299,6.49646222 L1.75079063,10.6855145 Z" id="Path-359" opacity="0.5"></path>
                <path d="M3.18741477,1.08919792 L5.99941477,2.74819792 L5.99941477,8.17919792 L3.18741477,9.83819792 L3.18741477,1.08919792 Z" id="形状结合" opacity="0.4"></path>
                <path d="M1.75079063,0.241724456 L3.187,1.089 L3.187,9.837 L1.75079063,10.6855145 C1.56399637,10.7957099 1.38403449,10.867167 1.21523622,10.9024516 L0.746479724,10.90231 C0.295080445,10.7926637 0,10.3440338 0,9.63862931 L0,1.28860966 C0,0.14000764 0.788250255,-0.326106334 1.75079063,0.241724456 Z" id="形状结合"></path>
            </g>
        </g>
        <g id="Guide/128"></g>
    </g>
</svg>