<?xml version="1.0" encoding="UTF-8"?>
<svg width="18px" height="18px" viewBox="0 0 18 18" version="1.1" xmlns="http://www.w3.org/2000/svg" xmlns:xlink="http://www.w3.org/1999/xlink">
    <!-- Generator: Sketch 47 (45396) - http://www.bohemiancoding.com/sketch -->
    <title>audio-volume-muted-blocked-panel-normal</title>
    <desc>Created with Sketch.</desc>
    <defs></defs>
    <g id="Page-1" stroke="none" stroke-width="1" fill="none" fill-rule="evenodd">
        <g id="audio-volume-muted-blocked-panel-normal">
            <polygon id="Stroke-208" stroke-opacity="0.7" stroke="#000000" stroke-linecap="round" stroke-linejoin="round" points="2.5 5.5 2.5 12.5 6.072175 12.5 9.5 16.5 9.5 1.5 6.072175 5.5"></polygon>
            <path d="M14,8.29289322 L11.8535534,6.14644661 C11.6582912,5.95118446 11.3417088,5.95118446 11.1464466,6.14644661 C10.9511845,6.34170876 10.9511845,6.65829124 11.1464466,6.85355339 L13.2928932,9 L11.1464466,11.1464466 C10.9511845,11.3417088 10.9511845,11.6582912 11.1464466,11.8535534 C11.3417088,12.0488155 11.6582912,12.0488155 11.8535534,11.8535534 L14,9.70710678 L16.1464466,11.8535534 C16.3417088,12.0488155 16.6582912,12.0488155 16.8535534,11.8535534 C17.0488155,11.6582912 17.0488155,11.3417088 16.8535534,11.1464466 L14.7071068,9 L16.8535534,6.85355339 C17.0488155,6.65829124 17.0488155,6.34170876 16.8535534,6.14644661 C16.6582912,5.95118446 16.3417088,5.95118446 16.1464466,6.14644661 L14,8.29289322 Z" id="Combined-Shape" fill-opacity="0.7" fill="#000000" fill-rule="nonzero"></path>
        </g>
    </g>
</svg>