<?xml version="1.0" encoding="UTF-8"?>
<svg width="18px" height="18px" viewBox="0 0 18 18" version="1.1" xmlns="http://www.w3.org/2000/svg" xmlns:xlink="http://www.w3.org/1999/xlink">
    <!-- Generator: Sketch 47 (45396) - http://www.bohemiancoding.com/sketch -->
    <title>fullscreen-normal</title>
    <desc>Created with Sketch.</desc>
    <defs></defs>
    <g id="Page-1" stroke="none" stroke-width="1" fill="none" fill-rule="evenodd" fill-opacity="0.7">
        <g id="fullscreen-normal" fill-rule="nonzero" fill="#000000">
            <path d="M14,4.70710678 L14,8.5 C14,8.77614237 14.2238576,9 14.5,9 C14.7761424,9 15,8.77614237 15,8.5 L15,3.5 C15,3.22385763 14.7761424,3 14.5,3 L9.5,3 C9.22385763,3 9,3.22385763 9,3.5 C9,3.77614237 9.22385763,4 9.5,4 L13.2928932,4 L4,13.2928932 L4,9.5 C4,9.22385763 3.77614237,9 3.5,9 C3.22385763,9 3,9.22385763 3,9.5 L3,14.5 C3,14.7761424 3.22385763,15 3.5,15 L8.5,15 C8.77614237,15 9,14.7761424 9,14.5 C9,14.2238576 8.77614237,14 8.5,14 L4.70710678,14 L14,4.70710678 L14,4.70710678 Z" id="Combined-Shape"></path>
        </g>
    </g>
</svg>