<?xml version="1.0" encoding="UTF-8"?>
<svg width="48px" height="48px" viewBox="0 0 48 48" version="1.1" xmlns="http://www.w3.org/2000/svg" xmlns:xlink="http://www.w3.org/1999/xlink">
    <!-- Generator: Sketch 47.1 (45422) - http://www.bohemiancoding.com/sketch -->
    <title>dvd</title>
    <desc>Created with Sketch.</desc>
    <defs>
        <linearGradient x1="29.5221121%" y1="13.9311043%" x2="71.6799032%" y2="89.2573487%" id="linearGradient-1">
            <stop stop-color="#5A5A5A" offset="0%"></stop>
            <stop stop-color="#9B9B9B" offset="51.0222647%"></stop>
            <stop stop-color="#5F5F5F" offset="100%"></stop>
        </linearGradient>
        <linearGradient x1="24.2340527%" y1="8.16161353%" x2="77.0256314%" y2="93.7107035%" id="linearGradient-2">
            <stop stop-color="#151515" stop-opacity="0.5" offset="0%"></stop>
            <stop stop-color="#797979" stop-opacity="0.754147534" offset="50.8295068%"></stop>
            <stop stop-color="#000000" stop-opacity="0.3" offset="100%"></stop>
        </linearGradient>
    </defs>
    <g id="UI" stroke="none" stroke-width="1" fill="none" fill-rule="evenodd">
        <g id="dvd">
            <g id="Group-2" transform="translate(1.000000, 2.000000)">
                <g id="Group">
                    <g id="Group-4" transform="translate(16.000000, 15.000000)"></g>
                    <path d="M23,43 C11.4020203,43 2,33.5979797 2,22 C2,10.4020203 11.4020203,1 23,1 C34.5979797,1 44,10.4020203 44,22 C44,33.5979797 34.5979797,43 23,43 Z M23,29 C26.8659932,29 30,25.8659932 30,22 C30,18.1340068 26.8659932,15 23,15 C19.1340068,15 16,18.1340068 16,22 C16,25.8659932 19.1340068,29 23,29 Z" id="Combined-Shape" fill="url(#linearGradient-1)"></path>
                    <path d="M23,42 C34.045695,42 43,33.045695 43,22 C43,10.954305 34.045695,2 23,2 C11.954305,2 3,10.954305 3,22 C3,33.045695 11.954305,42 23,42 Z M23,43 C11.4020203,43 2,33.5979797 2,22 C2,10.4020203 11.4020203,1 23,1 C34.5979797,1 44,10.4020203 44,22 C44,33.5979797 34.5979797,43 23,43 Z" id="Oval" fill="url(#linearGradient-2)" fill-rule="nonzero"></path>
                    <path d="M23,29 C26.8659932,29 30,25.8659932 30,22 C30,18.1340068 26.8659932,15 23,15 C19.1340068,15 16,18.1340068 16,22 C16,25.8659932 19.1340068,29 23,29 L23,29 Z M23,25 C24.6568542,25 26,23.6568542 26,22 C26,20.3431458 24.6568542,19 23,19 C21.3431458,19 20,20.3431458 20,22 C20,23.6568542 21.3431458,25 23,25 L23,25 Z" id="Combined-Shape" fill="#CBD4E5" opacity="0.8"></path>
                    <path d="M23,32 C28.5228475,32 33,27.5228475 33,22 C33,16.4771525 28.5228475,12 23,12 C17.4771525,12 13,16.4771525 13,22 C13,27.5228475 17.4771525,32 23,32 L23,32 Z M23,28 C26.3137085,28 29,25.3137085 29,22 C29,18.6862915 26.3137085,16 23,16 C19.6862915,16 17,18.6862915 17,22 C17,25.3137085 19.6862915,28 23,28 L23,28 Z" id="Combined-Shape" fill="#000000" opacity="0.4"></path>
                    <path d="M23,2 C20.9221774,2 18.9148366,2.30176815 17.0194133,2.86386861 C17.0194133,2.86386859 22.0344509,19 22.0344509,19.0660484 C22.3500703,19.0225033 22.6724072,19 23,19 C23.3534771,19 23.7008349,19.0261999 24.0402373,19.0767638 C24.0402373,19.0262003 29.0402654,2.86386859 29.0402654,2.88166383 C27.1273169,2.30813963 25.0996434,2 23,2 Z M23,42.0090792 C20.9221774,42.0090792 18.9148366,41.707311 17.0194133,41.1452105 C17.0194133,41.1452106 22.0244158,24.9353168 22.024416,24.9416388 C22.343237,24.9860962 22.6689345,25.0090792 23,25.0090792 C23.346415,25.0090792 23.6869528,24.9839156 24.0198852,24.9353168 C24.3748704,24.8834988 29.0402654,41.1452106 29.0402654,41.1274153 C27.1273169,41.7009395 25.0996434,42.0090792 23,42.0090792 Z" id="Combined-Shape" fill="#FFFFFF" opacity="0.200000003" transform="translate(23.029839, 22.004540) rotate(-30.000000) translate(-23.029839, -22.004540) "></path>
                </g>
                <path d="M17.432,33.716 L17.432,38 L18.92,38 C19.592,38 20.108,37.802 20.468,37.412 C20.81,37.04 20.984,36.518 20.984,35.858 C20.984,35.186 20.822,34.664 20.504,34.304 C20.156,33.908 19.646,33.716 18.968,33.716 L17.432,33.716 Z M17.924,34.142 L18.89,34.142 C19.454,34.142 19.862,34.286 20.126,34.58 C20.372,34.856 20.498,35.282 20.498,35.858 C20.498,36.416 20.36,36.842 20.096,37.13 C19.814,37.424 19.394,37.574 18.836,37.574 L17.924,37.574 L17.924,34.142 Z M21.266,33.716 L22.85,38 L23.456,38 L25.04,33.716 L24.5,33.716 L23.162,37.466 L23.144,37.466 L21.806,33.716 L21.266,33.716 Z M25.502,33.716 L25.502,38 L26.99,38 C27.662,38 28.178,37.802 28.538,37.412 C28.88,37.04 29.054,36.518 29.054,35.858 C29.054,35.186 28.892,34.664 28.574,34.304 C28.226,33.908 27.716,33.716 27.038,33.716 L25.502,33.716 Z M25.994,34.142 L26.96,34.142 C27.524,34.142 27.932,34.286 28.196,34.58 C28.442,34.856 28.568,35.282 28.568,35.858 C28.568,36.416 28.43,36.842 28.166,37.13 C27.884,37.424 27.464,37.574 26.906,37.574 L25.994,37.574 L25.994,34.142 Z" id="DVD" fill="#FFFFFF"></path>
            </g>
        </g>
    </g>
</svg>