<?xml version="1.0" encoding="UTF-8"?>
<svg width="48px" height="48px" viewBox="0 0 48 48" version="1.1" xmlns="http://www.w3.org/2000/svg" xmlns:xlink="http://www.w3.org/1999/xlink">
    <!-- Generator: Sketch 47 (45396) - http://www.bohemiancoding.com/sketch -->
    <title>film</title>
    <desc>Created with Sketch.</desc>
    <defs></defs>
    <g id="Page-1" stroke="none" stroke-width="1" fill="none" fill-rule="evenodd" fill-opacity="0.7">
        <g id="film" fill="#000000">
            <g id="Group" transform="translate(5.000000, 2.000000)">
                <path d="M0,1.00167227 C0,0.44846395 0.453230292,0 0.996875402,0 L37.0031246,0 C37.5536837,0 38,0.449815579 38,1.00167227 L38,42.9983277 C38,43.551536 37.5467697,44 37.0031246,44 L0.996875402,44 C0.44631632,44 0,43.5501844 0,42.9983277 L0,1.00167227 Z M2,2 L2,6 L6,6 L6,2 L2,2 Z M2,8 L2,12 L6,12 L6,8 L2,8 Z M2,20 L2,24 L6,24 L6,20 L2,20 Z M2,14 L2,18 L6,18 L6,14 L2,14 Z M2,26 L2,30 L6,30 L6,26 L2,26 Z M2,32 L2,36 L6,36 L6,32 L2,32 Z M32,2 L32,6 L36,6 L36,2 L32,2 Z M32,8 L32,12 L36,12 L36,8 L32,8 Z M32,20 L32,24 L36,24 L36,20 L32,20 Z M32,14 L32,18 L36,18 L36,14 L32,14 Z M32,26 L32,30 L36,30 L36,26 L32,26 Z M32,32 L32,36 L36,36 L36,32 L32,32 Z M2,38 L2,42 L6,42 L6,38 L2,38 Z M32,38 L32,42 L36,42 L36,38 L32,38 Z" id="Combined-Shape"></path>
            </g>
        </g>
    </g>
</svg>