<?xml version="1.0" encoding="UTF-8"?>
<svg width="128px" height="128px" viewBox="0 0 128 128" version="1.1" xmlns="http://www.w3.org/2000/svg" xmlns:xlink="http://www.w3.org/1999/xlink">
    <!-- Generator: Sketch 47.1 (45422) - http://www.bohemiancoding.com/sketch -->
    <title>pause-big_press</title>
    <desc>Created with Sketch.</desc>
    <defs>
        <rect id="path-1" x="0" y="0" width="88" height="76" rx="8"></rect>
        <filter x="-15.9%" y="-15.8%" width="131.8%" height="136.8%" filterUnits="objectBoundingBox" id="filter-2">
            <feMorphology radius="1" operator="dilate" in="SourceAlpha" result="shadowSpreadOuter1"></feMorphology>
            <feOffset dx="0" dy="2" in="shadowSpreadOuter1" result="shadowOffsetOuter1"></feOffset>
            <feGaussianBlur stdDeviation="4" in="shadowOffsetOuter1" result="shadowBlurOuter1"></feGaussianBlur>
            <feComposite in="shadowBlurOuter1" in2="SourceAlpha" operator="out" result="shadowBlurOuter1"></feComposite>
            <feColorMatrix values="0 0 0 0 0   0 0 0 0 0   0 0 0 0 0  0 0 0 0.1 0" type="matrix" in="shadowBlurOuter1"></feColorMatrix>
        </filter>
    </defs>
    <g id="Page-1" stroke="none" stroke-width="1" fill="none" fill-rule="evenodd">
        <g id="pause-big_press">
            <g id="Group" transform="translate(20.000000, 26.000000)">
                <g id="Rectangle-5">
                    <use fill="black" fill-opacity="1" filter="url(#filter-2)" xlink:href="#path-1"></use>
                    <use fill-opacity="0.4" fill="#FFFFFF" fill-rule="evenodd" xlink:href="#path-1"></use>
                    <rect stroke-opacity="0.05" stroke="#000000" stroke-width="1" x="-0.5" y="-0.5" width="89" height="77" rx="8"></rect>
                </g>
            </g>
            <path d="M51,47.9991421 C51,47.4473312 51.4378814,47 52.0029293,47 L56.9970707,47 C57.5509732,47 58,47.4549243 58,47.9991421 L58,80.0008579 C58,80.5526688 57.5621186,81 56.9970707,81 L52.0029293,81 C51.4490268,81 51,80.5450757 51,80.0008579 L51,47.9991421 Z M70,47.9991421 C70,47.4473312 70.4378814,47 71.0029293,47 L75.9970707,47 C76.5509732,47 77,47.4549243 77,47.9991421 L77,80.0008579 C77,80.5526688 76.5621186,81 75.9970707,81 L71.0029293,81 C70.4490268,81 70,80.5450757 70,80.0008579 L70,47.9991421 Z" id="Combined-Shape" fill-opacity="0.7" fill="#000000"></path>
        </g>
    </g>
</svg>