<?xml version="1.0" encoding="UTF-8"?>
<svg width="48px" height="48px" viewBox="0 0 48 48" version="1.1" xmlns="http://www.w3.org/2000/svg" xmlns:xlink="http://www.w3.org/1999/xlink">
    <!-- Generator: Sketch 47.1 (45422) - http://www.bohemiancoding.com/sketch -->
    <title>url</title>
    <desc>Created with Sketch.</desc>
    <defs></defs>
    <g id="UI" stroke="none" stroke-width="1" fill="none" fill-rule="evenodd" fill-opacity="0.7">
        <g id="url" fill="#000000">
            <g id="Group" transform="translate(5.000000, 2.000000)">
                <path d="M0,1.00167227 C0,0.44846395 0.453230292,0 0.996875402,0 L37.0031246,0 C37.5536837,0 38,0.449815579 38,1.00167227 L38,42.9983277 C38,43.551536 37.5467697,44 37.0031246,44 L0.996875402,44 C0.44631632,44 0,43.5501844 0,42.9983277 L0,1.00167227 Z M2,2 L2,6 L6,6 L6,2 L2,2 Z M2,8 L2,12 L6,12 L6,8 L2,8 Z M2,20 L2,24 L6,24 L6,20 L2,20 Z M2,14 L2,18 L6,18 L6,14 L2,14 Z M2,26 L2,30 L6,30 L6,26 L2,26 Z M2,32 L2,36 L6,36 L6,32 L2,32 Z M32,2 L32,6 L36,6 L36,2 L32,2 Z M32,8 L32,12 L36,12 L36,8 L32,8 Z M32,20 L32,24 L36,24 L36,20 L32,20 Z M32,14 L32,18 L36,18 L36,14 L32,14 Z M32,26 L32,30 L36,30 L36,26 L32,26 Z M32,32 L32,36 L36,36 L36,32 L32,32 Z M2,38 L2,42 L6,42 L6,38 L2,38 Z M32,38 L32,42 L36,42 L36,38 L32,38 Z M15.033936,19.5136357 C15.1278858,19.5136357 15.2188998,19.5195071 15.3069759,19.53125 C15.3950543,19.5429929 15.4801947,19.5664809 15.5624016,19.6017118 C15.8677368,19.2494006 16.1936197,18.9147105 16.5400572,18.5976325 C16.8864969,18.2805522 17.241737,17.981093 17.6057933,17.6992436 C17.5940482,17.6405247 17.585241,17.5759366 17.5793696,17.5054726 C17.5734982,17.4350108 17.5705602,17.3645513 17.5705602,17.2940872 C17.5705602,17.2001397 17.5764339,17.1061899 17.5881768,17.0122401 C17.5999196,16.9182926 17.6234076,16.8243428 17.6586385,16.730393 C17.2358656,16.436803 16.7984208,16.1637652 16.3462884,15.9112753 C15.894156,15.6587876 15.4273517,15.4327237 14.9458599,15.2330812 C14.487856,15.5149306 14.0621541,15.8378756 13.6687406,16.2019319 C13.2753271,16.5659859 12.9259568,16.9593926 12.620621,17.3821656 C12.8437511,17.8049386 13.0962367,18.2071547 13.3780863,18.5888231 C13.6599335,18.9704937 13.9593926,19.337479 14.2764729,19.6897879 C14.3821656,19.6310712 14.4996012,19.5870332 14.6287818,19.5576737 C14.7579625,19.5283143 14.8930124,19.5136357 15.033936,19.5136357 Z M13.2723914,21.2751803 C13.2723914,21.1577425 13.2841365,21.0403069 13.3076245,20.9228714 C13.3311103,20.8054335 13.3663412,20.6938694 13.413315,20.5881768 C13.1314676,20.2710965 12.8613667,19.9452135 12.6030056,19.6105189 C12.3446444,19.2758243 12.1039023,18.9323271 11.8807723,18.5800159 C11.5989238,19.1319696 11.3816688,19.7220808 11.2290008,20.3503677 C11.0763328,20.9786545 11,21.6274847 11,22.2968739 C11,23.071958 11.1027557,23.8176714 11.3082704,24.5340366 C11.5137848,25.2504018 11.7985652,25.919782 12.1626194,26.5421975 C12.3035437,25.8023442 12.4973118,25.0801188 12.7439291,24.3754987 C12.9905465,23.6708764 13.2841343,22.9956248 13.6247003,22.3497213 C13.5190076,22.1970526 13.4338672,22.0297076 13.3692769,21.8476817 C13.3046866,21.6656535 13.2723914,21.4748227 13.2723914,21.2751803 Z M19.3321048,15.5325427 C19.5669804,15.5325427 19.7871706,15.573645 19.9926845,15.6558519 C20.1982007,15.7380588 20.3772886,15.8554921 20.5299551,16.0081608 C20.9879612,15.8085184 21.4606369,15.6323662 21.9480002,15.4796975 C22.4353635,15.3270288 22.9315272,15.2037218 23.4365048,15.109772 C22.8258322,14.757463 22.1711329,14.4844253 21.472382,14.2906543 C20.7736334,14.0968833 20.04847,14 19.2968761,14 C18.7801534,14 18.2781182,14.0469738 17.7907549,14.1409236 C17.3033916,14.2348734 16.830716,14.3640518 16.3727099,14.5284634 C16.7367662,14.7046178 17.0890706,14.8983866 17.4296366,15.109772 C17.7702049,15.3211596 18.104895,15.5442855 18.4337182,15.7791612 C18.5628988,15.6969542 18.7038202,15.6353019 18.8564889,15.5941973 C19.0091576,15.553095 19.1676932,15.5325427 19.3321048,15.5325427 Z M21.9744239,23.8470331 C22.0213977,23.7295976 22.08305,23.6209692 22.1593855,23.5211479 C22.2357187,23.4213267 22.3267306,23.3303149 22.4324232,23.2481102 C22.1740641,22.4495381 21.839374,21.6862103 21.4283439,20.9581 C21.0173139,20.2299919 20.5475739,19.5488688 20.0191083,18.9147083 C19.9134156,18.9616843 19.8018515,18.9969152 19.6844137,19.0204032 C19.5669781,19.043889 19.4495426,19.0556318 19.3321048,19.0556318 C19.1324623,19.0556318 18.9475029,19.0262746 18.7772199,18.9675557 C18.6069369,18.9088368 18.4513347,18.8266322 18.3104112,18.7209395 C17.9815857,18.967558 17.6703837,19.2259149 17.3767914,19.4960191 C17.0831991,19.7661234 16.8013543,20.0538397 16.53125,20.3591771 C16.6134569,20.4883555 16.678045,20.6322148 16.7250188,20.7907549 C16.7719948,20.9492951 16.7954806,21.1107664 16.7954806,21.2751803 C16.7954806,21.3691278 16.7896091,21.4601419 16.7778662,21.548218 C16.7661234,21.6362963 16.7485068,21.7214367 16.7250188,21.8036414 C17.1125608,22.0620028 17.5118413,22.2998096 17.9228691,22.5170686 C18.3338992,22.7343254 18.7596011,22.9310299 19.1999906,23.1071866 C19.6403779,23.2833411 20.0925035,23.4330696 20.5563788,23.5563788 C21.0202541,23.6796881 21.492932,23.7765713 21.9744239,23.8470331 Z M24.2644296,26.2251194 C24.2761747,26.389531 24.2849819,26.5568761 24.2908533,26.7271591 C24.2967248,26.8974421 24.2996628,27.0647871 24.2996628,27.2291987 C24.2996628,27.5345361 24.2908533,27.8339953 24.273239,28.1275876 C24.2556224,28.4211798 24.229201,28.7147676 24.1939678,29.0083599 C24.8868473,28.4916376 25.4945728,27.8751022 26.017167,27.1587369 C26.5397612,26.442374 26.9361059,25.6614297 27.2062102,24.8158838 C26.8891299,24.8980907 26.566185,24.9656145 26.2373595,25.0184619 C25.9085364,25.0713072 25.5738463,25.1153452 25.2332803,25.1505784 C25.1628185,25.3971946 25.0395115,25.6115134 24.863357,25.7935416 C24.6872003,25.9755675 24.4875601,26.1194268 24.2644296,26.2251194 Z M21.5516532,25.0272691 C21.0466733,24.9450622 20.5475739,24.8335003 20.0543392,24.6925745 C19.5611044,24.5516509 19.0796193,24.3872416 18.6098726,24.199342 C18.1401259,24.0114447 17.6821288,23.8000616 17.2358678,23.565186 C16.7896069,23.3303126 16.3609692,23.0719557 15.9499392,22.7901064 C15.8207607,22.8723133 15.6769014,22.9369036 15.5183613,22.9838774 C15.3598212,23.0308512 15.1983498,23.0543392 15.033936,23.0543392 C14.9752193,23.0543392 14.9135647,23.0514035 14.8489744,23.045532 C14.784384,23.0396606 14.7227316,23.0308512 14.6640127,23.0191083 C14.2764707,23.7589615 13.9593972,24.545775 13.7127787,25.379578 C13.4661602,26.2133811 13.3076245,27.0706563 13.2371616,27.9514331 C13.6247026,28.3742059 14.0562782,28.7558702 14.5318963,29.0964371 C15.0075168,29.437004 15.5212948,29.7188485 16.0732484,29.9419785 C16.4020716,29.4252562 16.7690568,28.9320287 17.1742132,28.4622811 C17.5793718,27.9925332 18.0109452,27.5521527 18.468949,27.1411226 C18.9269529,26.7300925 19.4143094,26.345493 19.9310322,25.9873103 C20.4477527,25.6291277 20.9879544,25.3091185 21.5516532,25.0272691 Z M24.863357,16.1490844 C24.2057084,16.2195462 23.5598163,16.334046 22.9256557,16.4925862 C22.2914974,16.6511263 21.6808339,16.8595737 21.0936494,17.117935 C21.0936494,17.1414208 21.0936494,17.1678445 21.0936494,17.197204 C21.0936494,17.2265634 21.0936494,17.2588564 21.0936494,17.2940872 C21.0936494,17.4350131 21.0789708,17.5700629 21.0496113,17.6992436 C21.0202518,17.8284243 20.9762138,17.9517313 20.9174971,18.0691669 C21.5046794,18.7620463 22.0243311,19.5077597 22.4764635,20.3063296 C22.9285959,21.1048995 23.3014526,21.9504341 23.5950449,22.8429538 C23.9473538,22.8429538 24.2673653,22.9427728 24.5550862,23.1424153 C24.842807,23.34206 25.0512544,23.6004169 25.1804328,23.9174949 C25.57972,23.8705211 25.9760624,23.8088688 26.3694759,23.7325333 C26.7628895,23.6562001 27.1416176,23.5651882 27.5056716,23.4594956 C27.5409048,23.271596 27.5643905,23.0807629 27.5761334,22.8869919 C27.5878786,22.6932208 27.59375,22.4965186 27.59375,22.2968739 C27.59375,21.6862036 27.5291597,21.0931566 27.3999812,20.517715 C27.2708005,19.9422733 27.0887746,19.3962001 26.8539013,18.8794796 C26.6190279,18.3627569 26.3342473,17.8724646 25.9995527,17.4085893 C25.6648581,16.9447141 25.2861277,16.5248813 24.863357,16.1490844 Z M22.4500398,25.9785032 C21.9215742,26.2251217 21.4136676,26.5040286 20.9263043,26.8152374 C20.438941,27.126444 19.9780082,27.4670055 19.5434901,27.8369333 C19.1089743,28.2068588 18.7038224,28.6002666 18.3280255,29.0171675 C17.9522285,29.4340685 17.6057933,29.8773861 17.288713,30.3471338 C17.6057933,30.4293396 17.9316763,30.490993 18.2663709,30.5320959 C18.6010655,30.5731989 18.944565,30.59375 19.2968761,30.59375 C19.9192916,30.59375 20.5240814,30.5262248 21.1112659,30.3911724 C21.6984505,30.2561199 22.262138,30.0652878 22.8023487,29.8186704 C22.8845556,29.4076412 22.9491437,28.9848748 22.9961175,28.5503583 C23.0430935,28.1158424 23.0665793,27.6754597 23.0665793,27.2291987 C23.0665793,27.0765323 23.0607078,26.9209301 23.048965,26.76239 C23.0372221,26.6038498 23.025477,26.4423785 23.0137341,26.2779669 C22.9080414,26.2427337 22.8082202,26.1986957 22.7142704,26.1458505 C22.6203228,26.093003 22.5322467,26.0372221 22.4500398,25.9785032 Z" id="Combined-Shape"></path>
            </g>
        </g>
    </g>
</svg>