<?xml version="1.0" encoding="UTF-8"?>
<svg width="36px" height="36px" viewBox="0 0 36 36" version="1.1" xmlns="http://www.w3.org/2000/svg" xmlns:xlink="http://www.w3.org/1999/xlink">
    <title>button-Play-15+</title>
    <g id="button-Play-15+" stroke="none" stroke-width="1" fill="none" fill-rule="evenodd">
        <path d="M10.2555408,-4.14336123e-16 L25.7444592,4.14336123e-16 C29.3105342,-2.4074122e-16 30.6036791,0.371302445 31.9073828,1.06853082 C33.2110865,1.76575919 34.2342408,2.78891348 34.9314692,4.09261719 C35.6286976,5.39632089 36,6.68946584 36,10.2555408 L36,25.7444592 C36,29.3105342 35.6286976,30.6036791 34.9314692,31.9073828 C34.2342408,33.2110865 33.2110865,34.2342408 31.9073828,34.9314692 C30.6036791,35.6286976 29.3105342,36 25.7444592,36 L10.2555408,36 C6.68946584,36 5.39632089,35.6286976 4.09261719,34.9314692 C2.78891348,34.2342408 1.76575919,33.2110865 1.06853082,31.9073828 C0.371302445,30.6036791 1.60494146e-16,29.3105342 -2.76224082e-16,25.7444592 L2.76224082e-16,10.2555408 C-1.60494146e-16,6.68946584 0.371302445,5.39632089 1.06853082,4.09261719 C1.76575919,2.78891348 2.78891348,1.76575919 4.09261719,1.06853082 C5.39632089,0.371302445 6.68946584,2.4074122e-16 10.2555408,-4.14336123e-16 Z" id="Rectangle-3" fill-opacity="0" fill="#000000"></path>
        <g id="ICON-/-Media-/-Play-15+" transform="translate(10.453051, 10.399662)" fill="#000000" fill-rule="nonzero">
            <path d="M2.92131065,1.61145614 C6.15850491,-0.917717207 10.8024871,-0.409777057 13.4213318,2.71388913 L13.4213318,2.71388913 L13.4512867,2.75 L14.6003379,1.60033786 L14.6003379,4.60033786 L11.6003379,4.60033786 L12.5980325,3.60244348 C10.4117076,0.868057773 6.42609416,0.396041021 3.66010442,2.55706904 C0.874783963,4.73319988 0.380938201,8.75525085 2.55706904,11.5405713 C4.73319988,14.3258918 8.75525085,14.8197375 11.5405713,12.6436067 C12.8948359,11.5855393 13.7446631,10.0590369 13.9517764,8.3872485 C13.9925176,8.05839169 14.292136,7.82482783 14.6209928,7.86556901 C14.9498496,7.90631019 15.1834134,8.20592855 15.1426723,8.53478535 C14.8968723,10.5188467 13.8866379,12.3334805 12.2793651,13.5892196 C8.97179703,16.173375 4.19561151,15.5869331 1.61145614,12.2793651 C-0.972699236,8.97179703 -0.386257394,4.19561151 2.92131065,1.61145614 Z M10.8524488,3.55933786 L10.9358288,3.56703786 C11.0408422,3.5875712 11.1212155,3.6491712 11.1769488,3.75183786 C11.2466155,3.8801712 11.2814488,4.02500453 11.2814488,4.18633786 C11.2814488,4.34033786 11.2466155,4.48333786 11.1769488,4.61533786 C11.1072822,4.74733786 10.9991155,4.81333786 10.8524488,4.81333786 L10.8524488,4.81333786 L8.37744884,4.81333786 L8.24544884,6.62833786 L9.09244884,6.62833786 L9.33047662,6.63460175 C9.72056921,6.65548138 10.0775599,6.72856009 10.4014488,6.85383786 C10.7901155,7.0041712 11.0999488,7.25350453 11.3309488,7.60183786 C11.5619488,7.9501712 11.6774488,8.41033786 11.6774488,8.98233786 L11.6774488,8.98233786 L11.6774488,9.19133786 L11.6720348,9.40875974 C11.6467691,9.90364516 11.5330738,10.3115045 11.3309488,10.6323379 C11.0999488,10.9990045 10.7901155,11.2630045 10.4014488,11.4243379 C10.0127822,11.5856712 9.58378217,11.6663379 9.11444884,11.6663379 C8.5571155,11.6663379 8.0841155,11.5710045 7.69544884,11.3803379 C7.30678217,11.1896712 7.01344884,10.9421712 6.81544884,10.6378379 C6.61744884,10.3335045 6.51844884,10.0126712 6.51844884,9.67533786 C6.51844884,9.4186712 6.58078217,9.24633786 6.70544884,9.15833786 C6.8301155,9.07033786 7.0061155,9.02633786 7.23344884,9.02633786 C7.5341155,9.02633786 7.72844884,9.07950453 7.81644884,9.18583786 C7.90444884,9.2921712 7.94844884,9.42233786 7.94844884,9.57633786 C7.94844884,9.75233786 7.99794884,9.9026712 8.09694884,10.0273379 C8.19594884,10.1520045 8.3316155,10.2473379 8.50394884,10.3133379 C8.67628217,10.3793379 8.86878217,10.4123379 9.08144884,10.4123379 C9.4481155,10.4123379 9.7341155,10.3133379 9.93944884,10.1153379 C10.1447822,9.91733786 10.2474488,9.60933786 10.2474488,9.19133786 L10.2474488,9.19133786 L10.2474488,8.98233786 L10.2411631,8.80981746 C10.2160203,8.47802154 10.1154488,8.22569501 9.93944884,8.05283786 C9.7341155,7.8511712 9.45178217,7.75033786 9.09244884,7.75033786 L9.09244884,7.75033786 L7.46444884,7.75033786 L7.34080884,7.74417786 C7.18710217,7.7277512 7.07798217,7.6784712 7.01344884,7.59633786 C6.93278217,7.4936712 6.89244884,7.35800453 6.89244884,7.18933786 C6.89244884,7.13800453 6.89428217,7.09033786 6.89794884,7.04633786 C6.9016155,7.00233786 6.9071155,6.9546712 6.91444884,6.90333786 L6.91444884,6.90333786 L7.18944884,4.01033786 L7.19873009,3.91133786 C7.21179259,3.81783786 7.23619884,3.74083786 7.27194884,3.68033786 C7.3196155,3.5996712 7.38378217,3.55933786 7.46444884,3.55933786 L7.46444884,3.55933786 L10.8524488,3.55933786 Z M5.07744884,3.53733786 C5.2241155,3.53733786 5.36528217,3.57950453 5.50094884,3.66383786 C5.6366155,3.7481712 5.70444884,3.86000453 5.70444884,3.99933786 L5.70444884,3.99933786 L5.70444884,11.1493379 L5.69564884,11.2331579 C5.67218217,11.3393445 5.60178217,11.4232379 5.48444884,11.4848379 C5.33778217,11.5618379 5.17278217,11.6003379 4.98944884,11.6003379 C4.81344884,11.6003379 4.65028217,11.5618379 4.49994884,11.4848379 C4.3496155,11.4078379 4.27444884,11.2960045 4.27444884,11.1493379 L4.27444884,11.1493379 L4.27444884,5.27533786 L3.92244884,5.62733786 L3.85644884,5.66721286 L3.85644884,5.66721286 L3.79044884,5.69883786 C3.74644884,5.7171712 3.7061155,5.72633786 3.66944884,5.72633786 C3.5301155,5.72633786 3.41828217,5.66583786 3.33394884,5.54483786 C3.2496155,5.42383786 3.20744884,5.2936712 3.20744884,5.15433786 C3.20744884,5.0516712 3.22944884,4.95450453 3.27344884,4.86283786 C3.31744884,4.7711712 3.38344884,4.69600453 3.47144884,4.63733786 L3.47144884,4.63733786 L4.76944884,3.64733786 L4.83682384,3.59921286 L4.83682384,3.59921286 L4.90694884,3.56483786 C4.9546155,3.54650453 5.01144884,3.53733786 5.07744884,3.53733786 Z" id="形状结合"></path>
        </g>
    </g>
</svg>