<?xml version="1.0" encoding="UTF-8"?>
<svg width="12px" height="14px" viewBox="0 0 12 14" version="1.1" xmlns="http://www.w3.org/2000/svg" xmlns:xlink="http://www.w3.org/1999/xlink">
    <title>形状结合</title>
    <g id="v23一期" stroke="none" stroke-width="1" fill="none" fill-rule="evenodd">
        <g id="4影院-播放列表1" transform="translate(-1649.000000, -299.000000)" fill="#000000" fill-rule="nonzero">
            <g id="编组-8" transform="translate(1560.000000, 272.000000)">
                <g id="-mockplus-" transform="translate(80.000000, 19.000000)">
                    <g id="-mockplus-" transform="translate(7.000000, 7.000000)">
                        <g id="ICON-/-Action-/-Delete" transform="translate(2.000000, 1.000000)">
                            <path d="M6,0 C9.3137085,0 12,0.927517607 12,2.33333333 C12,2.44654068 11.2297954,5.81831394 9.68938622,12.4486531 L9.69071837,12.4489605 C9.63142342,12.7059087 9.4730363,12.9290354 9.25003212,13.0697742 C8.2668154,13.6900044 7.18342109,14 6,14 C4.81657891,14 3.7331846,13.6900044 2.74981707,13.0700131 L2.74996638,13.0697765 C2.52698402,12.929053 2.36860441,12.705957 2.3092946,12.4490395 C0.770204592,5.8197926 0,2.44799206 0,2.33333333 C0,0.927517607 2.6862915,0 6,0 Z M6,1.16666667 C3.3490332,1.16666667 1.2,1.68900113 1.2,2.33333333 C1.2,2.97766554 3.3490332,3.5 6,3.5 C8.6509668,3.5 10.8,2.97766554 10.8,2.33333333 C10.8,1.68900113 8.6509668,1.16666667 6,1.16666667 Z" id="形状结合"></path>
                        </g>
                    </g>
                </g>
            </g>
        </g>
    </g>
</svg>