<?xml version="1.0" encoding="UTF-8"?>
<svg width="36px" height="36px" viewBox="0 0 36 36" version="1.1" xmlns="http://www.w3.org/2000/svg" xmlns:xlink="http://www.w3.org/1999/xlink">
    <title>button- list</title>
    <g id="button--list" stroke="none" stroke-width="1" fill="none" fill-rule="evenodd">
        <path d="M10.2555408,-4.14336123e-16 L25.7444592,4.14336123e-16 C29.3105342,-2.4074122e-16 30.6036791,0.371302445 31.9073828,1.06853082 C33.2110865,1.76575919 34.2342408,2.78891348 34.9314692,4.09261719 C35.6286976,5.39632089 36,6.68946584 36,10.2555408 L36,25.7444592 C36,29.3105342 35.6286976,30.6036791 34.9314692,31.9073828 C34.2342408,33.2110865 33.2110865,34.2342408 31.9073828,34.9314692 C30.6036791,35.6286976 29.3105342,36 25.7444592,36 L10.2555408,36 C6.68946584,36 5.39632089,35.6286976 4.09261719,34.9314692 C2.78891348,34.2342408 1.76575919,33.2110865 1.06853082,31.9073828 C0.371302445,30.6036791 1.60494146e-16,29.3105342 -2.76224082e-16,25.7444592 L2.76224082e-16,10.2555408 C-1.60494146e-16,6.68946584 0.371302445,5.39632089 1.06853082,4.09261719 C1.76575919,2.78891348 2.78891348,1.76575919 4.09261719,1.06853082 C5.39632089,0.371302445 6.68946584,2.4074122e-16 10.2555408,-4.14336123e-16 Z" id="Rectangle-3" fill-opacity="0" fill="#000000"></path>
        <g id="ICON-/-View-/-List" transform="translate(11.000000, 11.500000)" fill="#000000" fill-rule="nonzero">
            <path d="M13.001289,12.5 C13.5528619,12.5 14,12.0561352 14,11.5 L14,11.5 C14,10.9477153 13.5545373,10.5 13.001289,10.5 L5.49871095,10.5 C4.94713812,10.5 4.5,10.9438648 4.5,11.5 L4.5,11.5 C4.5,12.0522847 4.9454627,12.5 5.49871095,12.5 L13.001289,12.5 Z M13.001289,7.5 C13.5528619,7.5 14,7.05613518 14,6.5 L14,6.5 C14,5.94771525 13.5545373,5.5 13.001289,5.5 L5.49871095,5.5 C4.94713812,5.5 4.5,5.94386482 4.5,6.5 L4.5,6.5 C4.5,7.05228475 4.9454627,7.5 5.49871095,7.5 L13.001289,7.5 Z M13.001289,2.5 C13.5528619,2.5 14,2.05613518 14,1.5 L14,1.5 C14,0.94771525 13.5545373,0.5 13.001289,0.5 L5.49871095,0.5 C4.94713812,0.5 4.5,0.943864822 4.5,1.5 L4.5,1.5 C4.5,2.05228475 4.9454627,2.5 5.49871095,2.5 L13.001289,2.5 Z M1.5,13 C2.32842712,13 3,12.3342028 3,11.5 L3,11.5 C3,10.6715729 2.33420277,10 1.5,10 L1.5,10 C0.671572875,10 0,10.6657972 0,11.5 L0,11.5 C0,12.3284271 0.665797234,13 1.5,13 L1.5,13 Z M1.5,8 C2.32842712,8 3,7.33420277 3,6.5 L3,6.5 C3,5.67157288 2.33420277,5 1.5,5 L1.5,5 C0.671572875,5 0,5.66579723 0,6.5 L0,6.5 C0,7.32842712 0.665797234,8 1.5,8 L1.5,8 Z M1.5,3 C2.32842712,3 3,2.33420277 3,1.5 L3,1.5 C3,0.671572875 2.33420277,1.85962357e-15 1.5,1.85962357e-15 L1.5,1.85962357e-15 C0.671572875,1.85962357e-15 0,0.665797234 0,1.5 L0,1.5 C0,2.32842712 0.665797234,3 1.5,3 L1.5,3 Z" id="形状结合"></path>
        </g>
    </g>
</svg>