<?xml version="1.0" encoding="UTF-8"?>
<svg width="20px" height="20px" viewBox="0 0 20 20" version="1.1" xmlns="http://www.w3.org/2000/svg" xmlns:xlink="http://www.w3.org/1999/xlink">
    <title>icon-update</title>
    <g id="浅色主题" stroke="none" stroke-width="1" fill="none" fill-rule="evenodd">
        <g id="画板" transform="translate(-602.000000, -104.000000)">
            <g id="icon-update" transform="translate(602.000000, 104.000000)">
                <rect id="矩形" x="0" y="0" width="20" height="20"></rect>
                <g id="编组-6" transform="translate(1.250000, 1.250000)" fill="#536076">
                    <path d="M8.75,0 C10.9946883,0 13.1064948,0.850063247 14.7114007,2.34490305 L14.9371843,2.56281566 L13.8765242,3.62347584 C12.5251737,2.27212533 10.6996643,1.5 8.75,1.5 C4.74593556,1.5 1.5,4.74593556 1.5,8.75 C1.5,12.7540644 4.74593556,16 8.75,16 C12.6739831,16 15.8698593,12.8826035 15.9961248,8.98931421 L16,8.75 L17.5,8.75 C17.5,13.5824916 13.5824916,17.5 8.75,17.5 C3.91750844,17.5 0,13.5824916 0,8.75 C0,3.91750844 3.91750844,0 8.75,0 Z" id="路径" fill-rule="nonzero"></path>
                    <polygon id="三角形" transform="translate(14.250000, 4.750000) rotate(-215.000000) translate(-14.250000, -4.750000) " points="14.25 2.75 17.75 6.75 10.75 6.75"></polygon>
                </g>
            </g>
        </g>
    </g>
</svg>