<?xml version="1.0" encoding="UTF-8"?>
<svg width="36px" height="36px" viewBox="0 0 36 36" version="1.1" xmlns="http://www.w3.org/2000/svg" xmlns:xlink="http://www.w3.org/1999/xlink">
    <title>button-Ex-Fullscreen</title>
    <g id="button-Ex-Fullscreen" stroke="none" stroke-width="1" fill="none" fill-rule="evenodd">
        <path d="M10.2555408,-4.14336123e-16 L25.7444592,4.14336123e-16 C29.3105342,-2.4074122e-16 30.6036791,0.371302445 31.9073828,1.06853082 C33.2110865,1.76575919 34.2342408,2.78891348 34.9314692,4.09261719 C35.6286976,5.39632089 36,6.68946584 36,10.2555408 L36,25.7444592 C36,29.3105342 35.6286976,30.6036791 34.9314692,31.9073828 C34.2342408,33.2110865 33.2110865,34.2342408 31.9073828,34.9314692 C30.6036791,35.6286976 29.3105342,36 25.7444592,36 L10.2555408,36 C6.68946584,36 5.39632089,35.6286976 4.09261719,34.9314692 C2.78891348,34.2342408 1.76575919,33.2110865 1.06853082,31.9073828 C0.371302445,30.6036791 1.60494146e-16,29.3105342 -2.76224082e-16,25.7444592 L2.76224082e-16,10.2555408 C-1.60494146e-16,6.68946584 0.371302445,5.39632089 1.06853082,4.09261719 C1.76575919,2.78891348 2.78891348,1.76575919 4.09261719,1.06853082 C5.39632089,0.371302445 6.68946584,2.4074122e-16 10.2555408,-4.14336123e-16 Z" id="Rectangle-3" fill-opacity="0" fill="#000000"></path>
        <g id="icon-ex-fullscreen" transform="translate(11.000000, 11.000000)" fill="#000000" fill-rule="nonzero">
            <path d="M9,8 L13,8 L13,10 L10,10 L10,13 L8,13 L8,9 C8,8.48716416 8.38604019,8.06449284 8.88337887,8.00672773 L9,8 Z M0,8 L4,8 C4.51283584,8 4.93550716,8.38604019 4.99327227,8.88337887 L5,9 L5,13 L3,13 L3,10 L0,10 L0,8 Z M10,0 L10,3 L13,3 L13,5 L9,5 C8.48716416,5 8.06449284,4.61395981 8.00672773,4.11662113 L8,4 L8,0 L10,0 Z M5,0 L5,4 C5,4.51283584 4.61395981,4.93550716 4.11662113,4.99327227 L4,5 L4.54747351e-13,5 L4.54747351e-13,3 L3,3 L3,0 L5,0 Z" id="形状"></path>
        </g>
    </g>
</svg>